<svg width="24" height="32" viewBox="0 0 24 32" fill="none" xmlns="http://www.w3.org/2000/svg">
<path d="M23.4473 19.8848L21.8872 17.295C21.5596 16.7178 21.2632 15.6257 21.2632 14.9861V11.039C21.2613 9.298 20.7666 7.59309 19.8361 6.12154C18.9057 4.64999 17.5777 3.47194 16.0057 2.72369C15.6044 2.01126 15.0192 1.41967 14.3112 1.01076C13.6031 0.601844 12.7982 0.390615 11.9806 0.399144C10.2801 0.399144 8.75121 1.3196 7.93996 2.77049C4.89776 4.28379 2.79163 7.41958 2.79163 11.039V14.9861C2.79163 15.6257 2.49521 16.7178 2.16759 17.2794L0.591895 19.8848C-0.0321441 20.93 -0.172553 22.0845 0.217471 23.1454C0.591895 24.1906 1.48115 25.0019 2.63562 25.3919C5.66221 26.4216 8.84481 26.9208 12.0274 26.9208C15.21 26.9208 18.3926 26.4216 21.4192 25.4075C22.5113 25.0487 23.3537 24.2218 23.7593 23.1454C24.165 22.0689 24.0558 20.8832 23.4473 19.8848ZM16.4113 28.4965C16.0832 29.4047 15.4835 30.1899 14.6936 30.7454C13.9036 31.3008 12.9619 31.5996 11.9962 31.6011C10.7637 31.6011 9.54686 31.1019 8.6888 30.2126C8.18957 29.7446 7.81515 29.1205 7.59674 28.4809C7.79955 28.5121 8.00236 28.5277 8.22077 28.5589C8.5796 28.6057 8.95402 28.6525 9.32844 28.6837C10.2177 28.7617 11.1226 28.8085 12.0274 28.8085C12.9167 28.8085 13.8059 28.7617 14.6796 28.6837C15.0072 28.6525 15.3348 28.6369 15.6468 28.5901L16.4113 28.4965Z" fill="black"/>
</svg>
