<svg width="11" height="20" viewBox="0 0 11 20" fill="none" xmlns="http://www.w3.org/2000/svg">
<path d="M10.5535 17.2353C11.0472 17.7287 11.0475 18.5302 10.5535 19.024C10.0601 19.5179 9.25887 19.5178 8.76471 19.024C8.76181 19.0211 8.75963 19.0182 8.75701 19.0152L8.75338 19.0184L0.375453 10.6405L0.378941 10.6373C0.258775 10.5198 0.163338 10.3795 0.0982573 10.2246C0.0331764 10.0697 -0.000232383 9.90328 1.2166e-06 9.73524C-0.000235528 9.54682 0.0417913 9.36073 0.122987 9.1907C0.204183 9.02066 0.322481 8.871 0.469171 8.75273L0.460453 8.74431L8.83838 0.366381L8.84201 0.369868C8.84463 0.366817 8.84681 0.364201 8.84971 0.361441C9.08774 0.128208 9.4082 -0.00167346 9.74144 1.62832e-05C10.0747 0.00170602 10.3938 0.13483 10.6295 0.370465C10.8651 0.6061 10.9983 0.925207 11 1.25845C11.0017 1.5917 10.8718 1.91216 10.6386 2.15021C10.6356 2.15312 10.6327 2.15515 10.6298 2.15806L10.6331 2.16155L3.06028 9.73524L10.549 17.2239L10.5453 17.227C10.5475 17.2302 10.5506 17.2322 10.5535 17.2353Z" fill="white"/>
</svg>
