<svg width="20" height="20" viewBox="0 0 20 20" fill="none" xmlns="http://www.w3.org/2000/svg">
<path d="M19.0026 6.96427C18.245 6.22427 17.1028 5.79427 15.5196 5.64427V4.88427C15.5196 3.51427 14.8636 2.19427 13.7102 1.27427C13.141 0.812823 12.4679 0.462927 11.7352 0.247511C11.0024 0.032095 10.2264 -0.0439787 9.45807 0.0242742C6.75528 0.254274 4.48222 2.56427 4.48222 5.06427V5.64427C2.89899 5.79427 1.75681 6.22427 0.999123 6.96427C-0.0978255 8.04427 -0.0638991 9.48427 0.0604971 10.4843L0.852109 16.0543C1.08959 18.0043 1.98298 20.0043 6.84575 20.0043H13.156C18.0188 20.0043 18.9122 18.0043 19.1497 16.0643L19.9413 10.4743C20.0657 9.48427 20.0883 8.04427 19.0026 6.96427ZM9.61639 1.41427C10.1644 1.36559 10.718 1.41913 11.2412 1.57143C11.7643 1.72372 12.2456 1.97138 12.6538 2.29841C13.062 2.62544 13.3881 3.02456 13.6109 3.46998C13.8338 3.91539 13.9485 4.39721 13.9476 4.88427V5.58427H6.05413V5.06427C6.05413 3.28427 7.71652 1.57427 9.61639 1.41427ZM5.95235 11.1543H5.94105C5.31906 11.1543 4.81017 10.7043 4.81017 10.1543C4.81017 9.60427 5.31906 9.15427 5.94105 9.15427C6.57434 9.15427 7.08323 9.60427 7.08323 10.1543C7.08323 10.7043 6.57434 11.1543 5.95235 11.1543ZM13.8685 11.1543H13.8572C13.2352 11.1543 12.7263 10.7043 12.7263 10.1543C12.7263 9.60427 13.2352 9.15427 13.8572 9.15427C14.4905 9.15427 14.9994 9.60427 14.9994 10.1543C14.9994 10.7043 14.4905 11.1543 13.8685 11.1543Z" fill="#252A32"/>
</svg>
