<svg width="48" height="48" viewBox="0 0 48 48" fill="none" xmlns="http://www.w3.org/2000/svg">
<path d="M24 4C12.954 4 4 12.954 4 24C4 35.046 12.954 44 24 44C35.046 44 44 35.046 44 24C44 12.954 35.046 4 24 4Z" fill="url(#paint0_linear_23_23)"/>
<path d="M26.707 29.301H31.883L32.696 24.043H26.707V21.169C26.707 18.985 27.421 17.048 29.464 17.048H32.747V12.46C32.17 12.382 30.95 12.212 28.645 12.212C23.831 12.212 21.009 14.754 21.009 20.546V24.044H16.06V29.302H21.008V43.754C21.988 43.9 22.981 44 24 44C24.921 44 25.82 43.916 26.707 43.796V29.301Z" fill="white"/>
<defs>
<linearGradient id="paint0_linear_23_23" x1="9.993" y1="9.993" x2="40.615" y2="40.615" gradientUnits="userSpaceOnUse">
<stop stop-color="#2AA4F4"/>
<stop offset="1" stop-color="#007AD9"/>
</linearGradient>
</defs>
</svg>
