<svg width="20" height="19" viewBox="0 0 20 19" fill="none" xmlns="http://www.w3.org/2000/svg">
<path d="M14.44 0.858765C12.63 0.858765 11.01 1.73876 10 3.08876C9.48413 2.39758 8.81426 1.83616 8.04353 1.44906C7.27281 1.06196 6.42247 0.85985 5.56 0.858765C2.49 0.858765 0 3.35876 0 6.44876C0 7.63876 0.19 8.73876 0.52 9.75876C2.1 14.7588 6.97 17.7488 9.38 18.5688C9.72 18.6888 10.28 18.6888 10.62 18.5688C13.03 17.7488 17.9 14.7588 19.48 9.75876C19.81 8.73876 20 7.63876 20 6.44876C20 3.35876 17.51 0.858765 14.44 0.858765Z" fill="white"/>
</svg>
