<svg width="25" height="25" viewBox="0 0 25 25" fill="none" xmlns="http://www.w3.org/2000/svg">
<path d="M24.6666 8.1832V2.7351C24.6666 1.04183 23.8993 0.358765 21.9924 0.358765H17.1418C15.2328 0.358765 14.4655 1.04183 14.4655 2.7351V8.17085C14.4655 9.87647 15.2328 10.5472 17.1398 10.5472H21.9883C23.8973 10.5595 24.6646 9.87647 24.6646 8.1832H24.6666ZM24.6666 21.6862V16.8347C24.6666 14.9254 23.8993 14.158 21.9924 14.158H17.1418C15.2328 14.158 14.4655 14.9254 14.4655 16.8327V21.682C14.4655 23.5913 15.2328 24.3588 17.1398 24.3588H21.9883C23.8973 24.3588 24.6646 23.5913 24.6646 21.6841L24.6666 21.6862ZM10.8677 8.1832V2.7351C10.8677 1.04183 10.1004 0.358765 8.1935 0.358765H3.34289C1.43392 0.358765 0.666626 1.04183 0.666626 2.7351V8.17085C0.666626 9.87647 1.43392 10.5472 3.34084 10.5472H8.18938C10.0984 10.5595 10.8677 9.87647 10.8677 8.1832ZM10.8677 21.6862V16.8347C10.8677 14.9254 10.1004 14.158 8.1935 14.158H3.34289C1.43392 14.158 0.666626 14.9254 0.666626 16.8327V21.682C0.666626 23.5913 1.43392 24.3588 3.34084 24.3588H8.18938C10.0984 24.3588 10.8656 23.5913 10.8656 21.6841L10.8677 21.6862Z" fill="black"/>
</svg>
