<svg width="24" height="25" viewBox="0 0 24 25" fill="none" xmlns="http://www.w3.org/2000/svg">
<path d="M22.4154 7.79281L14.688 1.61083C13.1779 0.407473 10.8183 0.395675 9.32002 1.59904L1.59255 7.79281C0.483568 8.67764 -0.188899 10.4473 0.0470547 11.8394L1.53356 20.7348C1.87569 22.7287 3.72793 24.2977 5.74533 24.2977H18.2508C20.2447 24.2977 22.1323 22.6933 22.4744 20.7231L23.9609 11.8276C24.1733 10.4473 23.5008 8.67764 22.4154 7.79281ZM12.8829 19.5787C12.8829 20.0624 12.4818 20.4635 11.9981 20.4635C11.5144 20.4635 11.1133 20.0624 11.1133 19.5787V16.0394C11.1133 15.5557 11.5144 15.1546 11.9981 15.1546C12.4818 15.1546 12.8829 15.5557 12.8829 16.0394V19.5787Z" fill="black"/>
</svg>
