<svg width="116" height="104" viewBox="0 0 116 104" fill="none" xmlns="http://www.w3.org/2000/svg">
<g clip-path="url(#clip0_18_18)">
<path fill-rule="evenodd" clip-rule="evenodd" d="M70.2501 52.8591C69.4226 53.7581 68.539 54.587 67.5955 55.3236C66.6853 55.9431 62.4219 56.7302 55.7409 56.7047C48.9314 56.6792 45.1324 55.8428 44.2347 55.3973C43.2737 54.6566 42.3731 53.8196 41.5314 52.9107C35.7396 53.377 32 54.1114 32 54.9385C32 55.5377 34.7938 56.1351 38.672 56.6334L38.5628 56.6786L40.5432 57.4988C40.5166 57.5272 40.5025 57.5568 40.5025 57.5875C40.5025 58.2917 47.407 59.4518 55.9338 59.4518C64.4606 59.4518 71.3826 58.2917 71.3826 57.5875C71.3826 57.5591 71.3684 57.5318 71.3458 57.5057L73.1299 56.7668C77.3198 56.2233 80.4468 55.5568 80.4468 54.9385C80.4468 54.08 76.4192 53.3219 70.2501 52.8591ZM59.7712 25.8786C62.543 24.4407 62.9819 21.993 63.0826 20.2691C63.4616 13.7675 56.0158 11.742 59.7712 2.00024C59.7888 1.95558 52.4595 8.40849 56.3167 13.9397C61.4744 21.3364 59.7384 25.896 59.7712 25.8786ZM81.1109 35.0629C78.4579 34.1082 76.8797 36.6685 76.2003 33.353C76.1896 33.3014 76.1415 33.3855 76.0685 33.5601C76.0776 33.5235 76.0889 33.4875 76.0889 33.451C76.0889 31.7712 67.0581 30.4093 55.9185 30.4093C44.7789 30.4093 35.7486 31.7706 35.7486 33.451C35.7486 33.4765 35.7571 33.5021 35.7611 33.5276C35.7475 33.5316 35.7328 33.5357 35.7192 33.5398C35.6853 34.0943 35.6678 34.6534 35.6678 35.2178C35.6678 43.3847 39.2597 50.576 44.7065 54.7749C45.641 55.2621 50.5051 55.9959 55.9343 55.9211C62.2466 55.8329 66.5015 55.3004 67.0615 54.7036C69.2036 53.0325 71.0488 50.891 72.5026 48.4142C75.2664 45.4085 82.5346 47.1515 83.9216 40.6145C83.938 40.5333 84.6994 36.3541 81.1109 35.0629ZM76.0091 33.7062C75.9967 33.7393 75.982 33.777 75.969 33.8135C75.9684 33.8031 75.9684 33.7926 75.9678 33.7822C75.9854 33.7573 75.995 33.7317 76.0091 33.7062ZM55.8376 36.4927C45.7637 36.4927 37.5978 35.3941 37.5978 34.0397C37.5978 32.6854 45.7643 31.5868 55.8376 31.5868C65.9109 31.5868 74.0774 32.6854 74.0774 34.0397C74.0774 35.3941 65.9115 36.4927 55.8376 36.4927ZM81.991 41.3981C80.4609 44.3018 77.6496 43.9021 73.8845 45.7153C73.8687 45.7229 75.8298 39.2485 75.8672 39.1325C76.5318 37.0432 78.9794 36.1604 80.4756 36.6696C83.3537 37.6493 82.1551 41.0866 81.991 41.3981ZM53.5387 25.689C55.3381 24.7458 55.6226 23.1408 55.6877 22.0104C55.9338 17.7465 51.1007 16.4188 53.5387 10.0309C53.5501 10.0013 48.7923 14.2326 51.2959 17.8596C54.6441 22.7099 53.5173 25.7 53.5387 25.689Z" fill="black"/>
</g>
<path d="M35.336 79.2C34.696 79.184 34.096 78.96 33.536 78.528C32.976 78.112 32.464 77.584 32 76.944C31.552 76.288 31.168 75.624 30.848 74.952C30.528 74.28 30.28 73.696 30.104 73.2C29.992 72.848 29.856 72.488 29.696 72.12C29.536 71.736 29.384 71.408 29.24 71.136C29.096 70.864 28.984 70.704 28.904 70.656C28.776 70.592 28.712 70.488 28.712 70.344C28.712 70.248 28.744 70.16 28.808 70.08C28.888 69.984 28.968 69.936 29.048 69.936C29.144 69.936 29.2 69.992 29.216 70.104C29.248 70.2 29.32 70.312 29.432 70.44C29.544 70.552 29.76 70.632 30.08 70.68C30.56 70.728 31.024 70.584 31.472 70.248C31.92 69.896 32.32 69.44 32.672 68.88C33.024 68.32 33.304 67.744 33.512 67.152C33.736 66.56 33.864 66.056 33.896 65.64C33.944 64.936 33.816 64.336 33.512 63.84C33.224 63.328 32.728 63.072 32.024 63.072C31.304 63.072 30.76 63.328 30.392 63.84C30.024 64.352 29.688 65 29.384 65.784C29.32 65.976 29.216 66.32 29.072 66.816C28.928 67.312 28.752 68.016 28.544 68.928C28.352 69.824 28.12 70.984 27.848 72.408C27.832 72.52 27.792 72.752 27.728 73.104C27.68 73.44 27.632 73.816 27.584 74.232C27.536 74.648 27.512 75.048 27.512 75.432C27.512 75.512 27.512 75.6 27.512 75.696C27.512 75.776 27.52 75.856 27.536 75.936C27.568 76.288 27.688 76.592 27.896 76.848C28.12 77.088 28.408 77.224 28.76 77.256C29.08 77.304 29.48 77.328 29.96 77.328C30.168 77.328 30.36 77.328 30.536 77.328C30.728 77.312 30.904 77.296 31.064 77.28C31.112 77.28 31.136 77.304 31.136 77.352C31.136 77.416 31.088 77.504 30.992 77.616C30.912 77.712 30.824 77.752 30.728 77.736C29.448 77.704 28.416 77.68 27.632 77.664C26.864 77.648 26.24 77.64 25.76 77.64C25.296 77.624 24.888 77.616 24.536 77.616C24.296 77.616 23.944 77.624 23.48 77.64C23.016 77.656 22.504 77.672 21.944 77.688C21.384 77.688 20.848 77.688 20.336 77.688H20.312C20.264 77.688 20.24 77.664 20.24 77.616C20.24 77.552 20.28 77.48 20.36 77.4C20.456 77.304 20.536 77.264 20.6 77.28C20.984 77.28 21.328 77.288 21.632 77.304C21.936 77.304 22.2 77.304 22.424 77.304C23 77.304 23.424 77.248 23.696 77.136C23.968 77.008 24.184 76.752 24.344 76.368C24.504 75.984 24.696 75.392 24.92 74.592C25.416 72.848 25.824 71.176 26.144 69.576C26.464 67.96 26.776 66.28 27.08 64.536C27.128 64.216 27.064 63.944 26.888 63.72C26.728 63.48 26.544 63.344 26.336 63.312C26.176 63.28 25.904 63.256 25.52 63.24C25.152 63.224 24.784 63.216 24.416 63.216C24.048 63.2 23.808 63.2 23.696 63.216C23.616 63.216 23.576 63.184 23.576 63.12C23.576 63.056 23.616 62.992 23.696 62.928C23.776 62.848 23.856 62.808 23.936 62.808C24.592 62.808 25.36 62.824 26.24 62.856C27.12 62.888 27.936 62.904 28.688 62.904H29.12C29.584 62.904 30.192 62.832 30.944 62.688C31.696 62.544 32.432 62.472 33.152 62.472C33.792 62.472 34.376 62.576 34.904 62.784C35.432 62.992 35.856 63.304 36.176 63.72C36.512 64.12 36.68 64.64 36.68 65.28C36.68 65.408 36.672 65.544 36.656 65.688C36.64 65.832 36.616 65.984 36.584 66.144C36.456 66.784 36.16 67.408 35.696 68.016C35.232 68.608 34.672 69.136 34.016 69.6C33.376 70.048 32.704 70.392 32 70.632C31.552 70.776 31.168 70.88 30.848 70.944C30.528 70.992 30.256 71.016 30.032 71.016C29.968 71.016 29.904 71.016 29.84 71.016C29.776 71.016 29.72 71.008 29.672 70.992C29.896 71.296 30.248 71.704 30.728 72.216C31.208 72.712 31.744 73.248 32.336 73.824C32.928 74.384 33.52 74.928 34.112 75.456C34.704 75.984 35.232 76.448 35.696 76.848C36.176 77.232 36.52 77.488 36.728 77.616C36.952 77.76 37.208 77.888 37.496 78C37.784 78.128 37.992 78.208 38.12 78.24C38.2 78.272 38.24 78.328 38.24 78.408C38.24 78.536 38.176 78.6 38.048 78.6C37.984 78.6 37.904 78.576 37.808 78.528C37.68 78.464 37.56 78.432 37.448 78.432C37.32 78.432 37.216 78.464 37.136 78.528C37.056 78.608 36.976 78.672 36.896 78.72C36.704 78.848 36.464 78.96 36.176 79.056C35.904 79.152 35.624 79.2 35.336 79.2ZM38.2419 68.184C38.0819 68.184 38.0019 68.144 38.0019 68.064C38.0019 67.952 38.1299 67.792 38.3859 67.584C38.7859 67.216 39.0499 66.84 39.1779 66.456C39.3219 66.056 39.4179 65.696 39.4659 65.376C39.5299 65.04 39.6419 64.816 39.8019 64.704C40.0259 64.528 40.2899 64.4 40.5939 64.32C40.9139 64.24 41.1939 64.2 41.4339 64.2C41.6099 64.2 41.7459 64.216 41.8419 64.248C41.9539 64.28 41.9939 64.32 41.9619 64.368C41.8179 64.704 41.6179 65.088 41.3619 65.52C41.1219 65.936 40.8419 66.344 40.5219 66.744C40.2019 67.128 39.8499 67.456 39.4659 67.728C39.0979 67.984 38.7139 68.136 38.3139 68.184H38.2419ZM49.9018 78.072C49.0218 78.072 48.1658 77.952 47.3338 77.712C46.5178 77.472 45.7898 77.088 45.1498 76.56C44.5098 76.032 44.0138 75.344 43.6618 74.496C43.3098 73.68 43.1738 72.816 43.2538 71.904C43.3338 70.816 43.6218 69.792 44.1178 68.832C44.6138 67.872 45.2538 67 46.0378 66.216C46.8378 65.432 47.7178 64.76 48.6778 64.2C49.6538 63.64 50.6538 63.208 51.6778 62.904C52.7178 62.6 53.7178 62.448 54.6778 62.448H54.7738C55.0618 62.448 55.3978 62.48 55.7818 62.544C56.1818 62.608 56.5338 62.736 56.8378 62.928C57.1418 63.12 57.2938 63.416 57.2938 63.816C57.2938 64.024 57.2458 64.24 57.1498 64.464C57.0378 64.704 56.9338 64.952 56.8378 65.208C56.7418 65.448 56.6458 65.696 56.5498 65.952L55.8298 67.848L55.5418 67.632C55.5418 67.632 55.5818 67.52 55.6618 67.296C55.7578 67.056 55.8458 66.784 55.9258 66.48C56.0218 66.176 56.0778 65.928 56.0938 65.736C56.1418 65.16 55.9978 64.752 55.6618 64.512C55.3418 64.256 54.9418 64.104 54.4618 64.056C53.9818 64.008 53.5258 63.984 53.0938 63.984C52.1818 63.984 51.2778 64.136 50.3818 64.44C49.4858 64.744 48.6618 65.176 47.9098 65.736C47.1738 66.296 46.5738 66.976 46.1098 67.776C45.6458 68.56 45.3738 69.448 45.2938 70.44C45.2778 70.552 45.2698 70.664 45.2698 70.776C45.2698 70.872 45.2698 70.968 45.2698 71.064C45.2698 72.648 45.7258 73.888 46.6378 74.784C47.5498 75.68 48.9578 76.128 50.8618 76.128C51.7578 76.128 52.7018 75.952 53.6938 75.6C54.7018 75.232 55.5498 74.736 56.2378 74.112C56.4138 73.952 56.5738 73.784 56.7178 73.608C56.8778 73.432 57.0378 73.256 57.1978 73.08L57.3898 73.392C57.3898 73.392 57.3018 73.488 57.1258 73.68C56.9498 73.856 56.7338 74.088 56.4778 74.376C56.2218 74.648 55.9658 74.928 55.7098 75.216C55.4698 75.504 55.2858 75.744 55.1578 75.936C54.8698 76.336 54.5738 76.696 54.2698 77.016C53.9658 77.336 53.5578 77.56 53.0458 77.688C52.5498 77.816 52.0298 77.912 51.4858 77.976C50.9418 78.04 50.4138 78.072 49.9018 78.072ZM60.0877 77.88C59.4797 77.88 58.8877 77.792 58.3117 77.616C57.7517 77.424 57.3597 77.096 57.1357 76.632C56.9757 76.296 56.8957 75.824 56.8957 75.216C56.8957 74.656 56.9517 74.056 57.0637 73.416C57.1757 72.776 57.3117 72.152 57.4717 71.544C57.6477 70.936 57.8077 70.432 57.9517 70.032C58.1597 69.472 58.4877 68.944 58.9357 68.448C59.3837 67.952 59.9757 67.56 60.7117 67.272C60.9837 67.16 61.3357 67.064 61.7677 66.984C62.2157 66.904 62.6717 66.864 63.1357 66.864C63.7597 66.864 64.3517 66.96 64.9117 67.152C65.4717 67.328 65.8717 67.656 66.1117 68.136C66.2717 68.456 66.3517 68.912 66.3517 69.504C66.3517 70.048 66.2877 70.648 66.1597 71.304C66.0477 71.96 65.9117 72.592 65.7517 73.2C65.5917 73.792 65.4317 74.296 65.2717 74.712C65.0637 75.256 64.7357 75.784 64.2877 76.296C63.8397 76.792 63.2477 77.184 62.5117 77.472C62.2397 77.584 61.8797 77.68 61.4317 77.76C60.9997 77.84 60.5517 77.88 60.0877 77.88ZM60.4477 77.328C60.8157 77.328 61.2637 77.208 61.7917 76.968C62.2557 76.744 62.6237 76.384 62.8957 75.888C63.1837 75.392 63.4077 74.848 63.5677 74.256C63.7277 73.664 63.8557 73.128 63.9517 72.648C64.0317 72.248 64.1037 71.808 64.1677 71.328C64.2317 70.848 64.2637 70.376 64.2637 69.912C64.2637 69.24 64.1597 68.664 63.9517 68.184C63.7437 67.688 63.3517 67.44 62.7757 67.44C62.4237 67.44 61.9837 67.56 61.4557 67.8C61.0077 68.008 60.6397 68.368 60.3517 68.88C60.0637 69.376 59.8397 69.92 59.6797 70.512C59.5197 71.088 59.3917 71.616 59.2957 72.096C59.2157 72.496 59.1357 72.944 59.0557 73.44C58.9917 73.92 58.9597 74.392 58.9597 74.856C58.9597 75.528 59.0637 76.112 59.2717 76.608C59.4797 77.088 59.8717 77.328 60.4477 77.328ZM63.548 82.752C63.548 82.704 63.548 82.656 63.548 82.608C63.548 82.56 63.556 82.512 63.572 82.464L64.7 82.344C65.148 82.296 65.572 81.952 65.972 81.312C66.372 80.688 66.748 79.864 67.1 78.84C67.452 77.832 67.78 76.728 68.084 75.528C68.388 74.312 68.668 73.104 68.924 71.904C69.18 70.688 69.404 69.584 69.596 68.592C69.244 68.576 68.884 68.568 68.516 68.568C68.148 68.568 67.884 68.56 67.724 68.544C67.228 68.512 66.812 68.544 66.476 68.64L66.38 68.376L68.06 67.776C68.188 67.744 68.42 67.72 68.756 67.704C69.108 67.672 69.452 67.648 69.788 67.632C69.868 67.264 69.932 66.928 69.98 66.624C70.044 66.304 70.108 66.032 70.172 65.808C70.412 65.104 70.612 64.52 70.772 64.056C70.932 63.576 71.164 63.184 71.468 62.88C71.772 62.56 72.252 62.288 72.908 62.064C72.988 62.032 73.132 61.984 73.34 61.92C73.548 61.84 73.772 61.76 74.012 61.68C74.252 61.584 74.46 61.504 74.636 61.44C74.812 61.376 74.9 61.344 74.9 61.344L74.996 61.656L74.348 61.848C73.9 61.976 73.532 62.24 73.244 62.64C72.956 63.024 72.716 63.472 72.524 63.984C72.348 64.496 72.18 65.024 72.02 65.568C71.924 65.92 71.828 66.272 71.732 66.624C71.636 66.96 71.548 67.304 71.468 67.656C71.66 67.672 71.86 67.68 72.068 67.68C72.276 67.68 72.484 67.68 72.692 67.68C73.204 67.68 73.716 67.656 74.228 67.608C74.74 67.56 75.204 67.464 75.62 67.32L75.764 67.488L73.532 68.448C73.228 68.512 72.86 68.56 72.428 68.592C72.012 68.608 71.612 68.624 71.228 68.64C70.94 69.824 70.668 71.008 70.412 72.192C70.156 73.376 69.884 74.584 69.596 75.816C69.196 77.576 68.676 79.048 68.036 80.232C67.412 81.432 66.492 82.24 65.276 82.656C65.084 82.688 64.82 82.712 64.484 82.728C64.132 82.76 63.82 82.768 63.548 82.752ZM76.604 65.16L76.34 64.896C76.436 64.512 76.484 64.176 76.484 63.888C76.484 63.376 76.356 62.984 76.1 62.712C75.86 62.44 75.524 62.304 75.092 62.304C74.708 62.304 74.26 62.424 73.748 62.664L73.628 62.472C74.156 62.168 74.612 61.944 74.996 61.8C75.396 61.656 75.78 61.56 76.148 61.512C76.516 61.448 76.924 61.408 77.372 61.392L77.468 61.464C77.5 61.656 77.476 61.92 77.396 62.256C77.316 62.592 77.212 62.936 77.084 63.288C77.02 63.464 76.956 63.64 76.892 63.816C76.844 63.976 76.796 64.136 76.748 64.296C76.652 64.6 76.604 64.888 76.604 65.16ZM62.996 83.256C62.388 83.256 61.86 83.2 61.412 83.088C60.964 82.976 60.476 82.816 59.948 82.608L59.9 82.488C59.964 82.28 60.124 82.032 60.38 81.744C60.636 81.456 60.908 81.168 61.196 80.88C61.356 80.736 61.508 80.592 61.652 80.448C61.796 80.304 61.932 80.168 62.06 80.04C62.188 79.912 62.3 79.784 62.396 79.656C62.476 79.544 62.548 79.416 62.612 79.272L62.732 79.632C62.108 80.32 61.796 80.952 61.796 81.528C61.796 81.96 61.996 82.304 62.396 82.56C62.78 82.832 63.348 82.96 64.1 82.944V83.208C63.892 83.224 63.7 83.232 63.524 83.232C63.348 83.248 63.172 83.256 62.996 83.256ZM70.844 82.752C70.844 82.704 70.844 82.656 70.844 82.608C70.844 82.56 70.852 82.512 70.868 82.464L71.996 82.344C72.444 82.296 72.868 81.952 73.268 81.312C73.668 80.688 74.044 79.864 74.396 78.84C74.748 77.832 75.076 76.728 75.38 75.528C75.684 74.312 75.964 73.104 76.22 71.904C76.476 70.688 76.7 69.584 76.892 68.592C76.54 68.576 76.18 68.568 75.812 68.568C75.444 68.568 75.18 68.56 75.02 68.544C74.524 68.512 74.108 68.544 73.772 68.64L73.676 68.376L75.356 67.776C75.484 67.744 75.716 67.72 76.052 67.704C76.404 67.672 76.748 67.648 77.084 67.632C77.164 67.264 77.228 66.928 77.276 66.624C77.34 66.304 77.404 66.032 77.468 65.808C77.708 65.104 77.908 64.52 78.068 64.056C78.228 63.576 78.46 63.184 78.764 62.88C79.068 62.56 79.548 62.288 80.204 62.064C80.284 62.032 80.428 61.984 80.636 61.92C80.844 61.84 81.068 61.76 81.308 61.68C81.548 61.584 81.756 61.504 81.932 61.44C82.108 61.376 82.196 61.344 82.196 61.344L82.292 61.656L81.644 61.848C81.196 61.976 80.828 62.24 80.54 62.64C80.252 63.024 80.012 63.472 79.82 63.984C79.644 64.496 79.476 65.024 79.316 65.568C79.22 65.92 79.124 66.272 79.028 66.624C78.932 66.96 78.844 67.304 78.764 67.656C78.956 67.672 79.156 67.68 79.364 67.68C79.572 67.68 79.78 67.68 79.988 67.68C80.5 67.68 81.012 67.656 81.524 67.608C82.036 67.56 82.5 67.464 82.916 67.32L83.06 67.488L80.828 68.448C80.524 68.512 80.156 68.56 79.724 68.592C79.308 68.608 78.908 68.624 78.524 68.64C78.236 69.824 77.964 71.008 77.708 72.192C77.452 73.376 77.18 74.584 76.892 75.816C76.492 77.576 75.972 79.048 75.332 80.232C74.708 81.432 73.788 82.24 72.572 82.656C72.38 82.688 72.108 82.712 71.756 82.728C71.42 82.76 71.116 82.768 70.844 82.752ZM83.9 65.16L83.636 64.896C83.732 64.512 83.78 64.176 83.78 63.888C83.78 63.376 83.652 62.984 83.396 62.712C83.156 62.44 82.82 62.304 82.388 62.304C82.004 62.304 81.556 62.424 81.044 62.664L80.924 62.472C81.452 62.168 81.908 61.944 82.292 61.8C82.692 61.656 83.076 61.56 83.444 61.512C83.812 61.448 84.22 61.408 84.668 61.392L84.764 61.464C84.796 61.656 84.772 61.92 84.692 62.256C84.612 62.592 84.508 62.936 84.38 63.288C84.316 63.464 84.252 63.64 84.188 63.816C84.14 63.976 84.092 64.136 84.044 64.296C83.948 64.6 83.9 64.888 83.9 65.16ZM70.292 83.256C69.684 83.256 69.156 83.2 68.708 83.088C68.26 82.976 67.772 82.816 67.244 82.608L67.196 82.488C67.26 82.28 67.42 82.032 67.676 81.744C67.932 81.456 68.204 81.168 68.492 80.88C68.652 80.736 68.804 80.592 68.948 80.448C69.092 80.304 69.228 80.168 69.356 80.04C69.484 79.912 69.588 79.784 69.668 79.656C69.764 79.544 69.844 79.416 69.908 79.272L70.028 79.632C69.404 80.32 69.092 80.952 69.092 81.528C69.092 81.96 69.284 82.304 69.668 82.56C70.068 82.832 70.644 82.96 71.396 82.944V83.208C71.188 83.224 70.996 83.232 70.82 83.232C70.644 83.248 70.468 83.256 70.292 83.256ZM89.2376 70.92L88.9496 70.728C88.9816 70.568 89.0056 70.424 89.0216 70.296C89.0536 70.152 89.0696 70.016 89.0696 69.888C89.0696 69.376 88.9176 68.984 88.6136 68.712C88.3256 68.44 87.9416 68.304 87.4616 68.304C87.0136 68.304 86.4936 68.44 85.9016 68.712L85.7816 68.52C86.5336 68.088 87.2296 67.752 87.8696 67.512C88.5256 67.272 89.1496 67.152 89.7416 67.152H89.8376C90.0136 67.152 90.1016 67.248 90.1016 67.44C90.1016 67.648 90.0616 67.896 89.9816 68.184C89.9016 68.456 89.8136 68.744 89.7176 69.048C89.6536 69.208 89.5976 69.368 89.5496 69.528C89.5016 69.672 89.4616 69.824 89.4296 69.984C89.3176 70.384 89.2536 70.696 89.2376 70.92ZM84.0056 78.024C83.5256 78.024 83.0776 77.952 82.6616 77.808C82.2456 77.664 81.9496 77.408 81.7736 77.04C81.6616 76.816 81.5816 76.56 81.5336 76.272C81.5016 75.968 81.4856 75.656 81.4856 75.336C81.4856 74.76 81.5416 74.152 81.6536 73.512C81.7816 72.856 81.9256 72.256 82.0856 71.712C82.4216 70.624 82.7976 69.792 83.2136 69.216C83.6296 68.64 84.1976 68.224 84.9176 67.968C85.0296 67.936 85.2056 67.872 85.4456 67.776C85.7016 67.68 85.9576 67.584 86.2136 67.488C86.4856 67.376 86.7016 67.296 86.8616 67.248L86.8856 67.536L85.4696 68.304C85.2616 68.416 85.0456 68.672 84.8216 69.072C84.5976 69.456 84.3896 69.92 84.1976 70.464C84.0056 71.008 83.8296 71.568 83.6696 72.144L85.1816 71.424C85.3736 71.376 85.5816 71.352 85.8056 71.352C86.0136 71.352 86.2136 71.368 86.4056 71.4C86.6136 71.432 86.8216 71.464 87.0296 71.496C87.3976 71.544 87.7736 71.568 88.1576 71.568C88.3176 71.568 88.4776 71.56 88.6376 71.544C88.8136 71.528 88.9816 71.504 89.1416 71.472L89.2376 71.64L87.0056 72.744C86.9096 72.76 86.8136 72.776 86.7176 72.792C86.6376 72.792 86.5496 72.792 86.4536 72.792C86.0696 72.792 85.6776 72.744 85.2776 72.648C84.8936 72.552 84.5096 72.504 84.1256 72.504C84.0296 72.504 83.9336 72.504 83.8376 72.504C83.7576 72.504 83.6696 72.52 83.5736 72.552C83.4936 72.936 83.4216 73.312 83.3576 73.68C83.3096 74.032 83.2856 74.368 83.2856 74.688C83.2856 75.184 83.3576 75.592 83.5016 75.912C83.7096 76.36 84.0136 76.712 84.4136 76.968C84.8136 77.208 85.2536 77.328 85.7336 77.328C86.4376 77.328 87.1336 77.04 87.8216 76.464C88.5096 75.888 89.0056 74.96 89.3096 73.68L89.6456 73.92C89.5016 74.32 89.3496 74.76 89.1896 75.24C89.0296 75.704 88.8856 76.272 88.7576 76.944C88.5976 77.2 88.3976 77.368 88.1576 77.448C87.9176 77.528 87.6456 77.568 87.3416 77.568C87.2296 77.568 87.1016 77.568 86.9576 77.568C86.8136 77.552 86.6696 77.544 86.5256 77.544C86.3016 77.656 85.9496 77.768 85.4696 77.88C85.0056 77.976 84.5176 78.024 84.0056 78.024Z" fill="black"/>
<path d="M7.57955 91V90.233C7.57955 90 7.62074 89.7528 7.70312 89.4915C7.78835 89.2273 7.91051 88.973 8.0696 88.7287C8.23153 88.4815 8.42614 88.267 8.65341 88.0852L9.19886 88.5284C9.01989 88.7841 8.86364 89.0511 8.73011 89.3295C8.59943 89.6051 8.53409 89.9006 8.53409 90.2159V91H7.57955ZM9.76136 91V90.233C9.76136 90 9.80256 89.7528 9.88494 89.4915C9.97017 89.2273 10.0923 88.973 10.2514 88.7287C10.4134 88.4815 10.608 88.267 10.8352 88.0852L11.3807 88.5284C11.2017 88.7841 11.0455 89.0511 10.9119 89.3295C10.7813 89.6051 10.7159 89.9006 10.7159 90.2159V91H9.76136ZM17.3999 90.4545C17.3487 90.0227 17.1413 89.6875 16.7777 89.4489C16.4141 89.2102 15.968 89.0909 15.4396 89.0909C15.0533 89.0909 14.7152 89.1534 14.4254 89.2784C14.1385 89.4034 13.9141 89.5753 13.7521 89.794C13.593 90.0128 13.5135 90.2614 13.5135 90.5398C13.5135 90.7727 13.5689 90.973 13.6797 91.1406C13.7933 91.3054 13.9382 91.4432 14.1143 91.554C14.2905 91.6619 14.4751 91.7514 14.6683 91.8224C14.8615 91.8906 15.0391 91.946 15.201 91.9886L16.0874 92.2273C16.3146 92.2869 16.5675 92.3693 16.8459 92.4744C17.1271 92.5795 17.3956 92.723 17.6513 92.9048C17.9098 93.0838 18.1229 93.3139 18.2905 93.5952C18.4581 93.8764 18.5419 94.2216 18.5419 94.6307C18.5419 95.1023 18.4183 95.5284 18.1712 95.9091C17.9268 96.2898 17.5689 96.5923 17.0973 96.8168C16.6286 97.0412 16.0589 97.1534 15.3885 97.1534C14.7635 97.1534 14.2223 97.0526 13.7649 96.8509C13.3104 96.6491 12.9524 96.3679 12.6911 96.0071C12.4325 95.6463 12.2862 95.2273 12.2521 94.75H13.343C13.3714 95.0795 13.4822 95.3523 13.6754 95.5682C13.8714 95.7812 14.1186 95.9403 14.4169 96.0455C14.718 96.1477 15.0419 96.1989 15.3885 96.1989C15.7919 96.1989 16.1541 96.1335 16.4751 96.0028C16.7962 95.8693 17.0504 95.6847 17.2379 95.4489C17.4254 95.2102 17.5192 94.9318 17.5192 94.6136C17.5192 94.3239 17.4382 94.0881 17.2763 93.9062C17.1143 93.7244 16.9013 93.5767 16.6371 93.4631C16.3729 93.3494 16.0874 93.25 15.7805 93.1648L14.7067 92.858C14.0249 92.6619 13.4851 92.3821 13.0874 92.0185C12.6896 91.6548 12.4908 91.179 12.4908 90.5909C12.4908 90.1023 12.6229 89.6761 12.8871 89.3125C13.1541 88.946 13.5121 88.6619 13.9609 88.4602C14.4126 88.2557 14.9169 88.1534 15.4737 88.1534C16.0362 88.1534 16.5362 88.2543 16.9737 88.456C17.4112 88.6548 17.7578 88.9276 18.0135 89.2741C18.272 89.6207 18.4084 90.0142 18.4226 90.4545H17.3999ZM22.0692 97.1534C21.6545 97.1534 21.2781 97.0753 20.94 96.919C20.6019 96.7599 20.3335 96.5312 20.1346 96.233C19.9357 95.9318 19.8363 95.5682 19.8363 95.142C19.8363 94.767 19.9102 94.4631 20.0579 94.2301C20.2056 93.9943 20.4031 93.8097 20.6502 93.6761C20.8974 93.5426 21.1701 93.4432 21.4684 93.3778C21.7695 93.3097 22.0721 93.2557 22.3761 93.2159C22.7738 93.1648 23.0962 93.1264 23.3434 93.1009C23.5934 93.0724 23.7752 93.0256 23.8888 92.9602C24.0053 92.8949 24.0636 92.7812 24.0636 92.6193V92.5852C24.0636 92.1648 23.9485 91.8381 23.7184 91.6051C23.4911 91.3722 23.146 91.2557 22.6829 91.2557C22.2028 91.2557 21.8263 91.3608 21.5536 91.571C21.2809 91.7812 21.0891 92.0057 20.9783 92.2443L20.0238 91.9034C20.1942 91.5057 20.4215 91.196 20.7056 90.9744C20.9925 90.75 21.305 90.5937 21.6431 90.5057C21.984 90.4148 22.3192 90.3693 22.6488 90.3693C22.859 90.3693 23.1005 90.3949 23.3732 90.446C23.6488 90.4943 23.9144 90.5952 24.1701 90.7486C24.4286 90.902 24.6431 91.1335 24.8136 91.4432C24.984 91.7528 25.0692 92.1676 25.0692 92.6875V97H24.0636V96.1136H24.0124C23.9442 96.2557 23.8306 96.4077 23.6715 96.5696C23.5124 96.7315 23.3008 96.8693 23.0366 96.983C22.7724 97.0966 22.4499 97.1534 22.0692 97.1534ZM22.2227 96.25C22.6204 96.25 22.9556 96.1719 23.2283 96.0156C23.5039 95.8594 23.7113 95.6577 23.8505 95.4105C23.9925 95.1634 24.0636 94.9034 24.0636 94.6307V93.7102C24.021 93.7614 23.9272 93.8082 23.7823 93.8509C23.6403 93.8906 23.4755 93.9261 23.288 93.9574C23.1033 93.9858 22.9229 94.0114 22.7468 94.0341C22.5735 94.054 22.4329 94.071 22.3249 94.0852C22.0636 94.1193 21.8192 94.1747 21.592 94.2514C21.3675 94.3253 21.1857 94.4375 21.0465 94.5881C20.9102 94.7358 20.842 94.9375 20.842 95.1932C20.842 95.5426 20.9712 95.8068 21.2298 95.9858C21.4911 96.1619 21.8221 96.25 22.2227 96.25ZM32.0227 90.4545L29.6023 97H28.5795L26.1591 90.4545H27.25L29.0568 95.6705H29.125L30.9318 90.4545H32.0227ZM35.7749 97.1364C35.1839 97.1364 34.6655 96.9957 34.2195 96.7145C33.7763 96.4332 33.4297 96.0398 33.1797 95.5341C32.9325 95.0284 32.8089 94.4375 32.8089 93.7614C32.8089 93.0795 32.9325 92.4844 33.1797 91.9759C33.4297 91.4673 33.7763 91.0724 34.2195 90.7912C34.6655 90.5099 35.1839 90.3693 35.7749 90.3693C36.3658 90.3693 36.8828 90.5099 37.326 90.7912C37.772 91.0724 38.1186 91.4673 38.3658 91.9759C38.6158 92.4844 38.7408 93.0795 38.7408 93.7614C38.7408 94.4375 38.6158 95.0284 38.3658 95.5341C38.1186 96.0398 37.772 96.4332 37.326 96.7145C36.8828 96.9957 36.3658 97.1364 35.7749 97.1364ZM35.7749 96.233C36.2237 96.233 36.593 96.1179 36.8828 95.8878C37.1726 95.6577 37.3871 95.3551 37.5263 94.9801C37.6655 94.6051 37.7351 94.1989 37.7351 93.7614C37.7351 93.3239 37.6655 92.9162 37.5263 92.5384C37.3871 92.1605 37.1726 91.8551 36.8828 91.6222C36.593 91.3892 36.2237 91.2727 35.7749 91.2727C35.326 91.2727 34.9567 91.3892 34.6669 91.6222C34.3771 91.8551 34.1626 92.1605 34.0234 92.5384C33.8842 92.9162 33.8146 93.3239 33.8146 93.7614C33.8146 94.1989 33.8842 94.6051 34.0234 94.9801C34.1626 95.3551 34.3771 95.6577 34.6669 95.8878C34.9567 96.1179 35.326 96.233 35.7749 96.233ZM40.2759 97V90.4545H41.2475V91.4432H41.3157C41.435 91.1193 41.6509 90.8565 41.9634 90.6548C42.2759 90.4531 42.6282 90.3523 43.0202 90.3523C43.0941 90.3523 43.1864 90.3537 43.2972 90.3565C43.408 90.3594 43.4918 90.3636 43.5487 90.3693V91.392C43.5146 91.3835 43.4364 91.3707 43.3143 91.3537C43.195 91.3338 43.0685 91.3239 42.935 91.3239C42.6168 91.3239 42.3327 91.3906 42.0827 91.5241C41.8356 91.6548 41.6396 91.8366 41.4947 92.0696C41.3526 92.2997 41.2816 92.5625 41.2816 92.858V97H40.2759ZM50.9624 90.4545V91.3068H47.5703V90.4545H50.9624ZM48.5589 88.8864H49.5646V95.125C49.5646 95.4091 49.6058 95.6222 49.6882 95.7642C49.7734 95.9034 49.8814 95.9972 50.0121 96.0455C50.1456 96.0909 50.2862 96.1136 50.4339 96.1136C50.5447 96.1136 50.6357 96.108 50.7067 96.0966C50.7777 96.0824 50.8345 96.071 50.8771 96.0625L51.0817 96.9659C51.0135 96.9915 50.9183 97.017 50.7962 97.0426C50.674 97.071 50.5192 97.0852 50.3317 97.0852C50.0476 97.0852 49.7692 97.0241 49.4964 96.902C49.2266 96.7798 49.0021 96.5938 48.8232 96.3438C48.647 96.0938 48.5589 95.7784 48.5589 95.3977V88.8864ZM53.6214 93.0625V97H52.6158V88.2727H53.6214V91.4773H53.7067C53.8601 91.1392 54.0902 90.8707 54.397 90.6719C54.7067 90.4702 55.1186 90.3693 55.6328 90.3693C56.0788 90.3693 56.4695 90.4588 56.8047 90.6378C57.1399 90.8139 57.3999 91.0852 57.5845 91.4517C57.772 91.8153 57.8658 92.2784 57.8658 92.8409V97H56.8601V92.9091C56.8601 92.3892 56.7251 91.9872 56.4553 91.7031C56.1882 91.4162 55.8175 91.2727 55.343 91.2727C55.0135 91.2727 54.718 91.3423 54.4567 91.4815C54.1982 91.6207 53.9936 91.8239 53.843 92.0909C53.6953 92.358 53.6214 92.6818 53.6214 93.0625ZM62.4499 97.1364C61.8192 97.1364 61.2752 96.9972 60.8178 96.7188C60.3633 96.4375 60.0124 96.0455 59.7653 95.5426C59.521 95.0369 59.3988 94.4489 59.3988 93.7784C59.3988 93.108 59.521 92.517 59.7653 92.0057C60.0124 91.4915 60.3562 91.0909 60.7965 90.804C61.2397 90.5142 61.7567 90.3693 62.3477 90.3693C62.6886 90.3693 63.0252 90.4261 63.3576 90.5398C63.69 90.6534 63.9925 90.8381 64.2653 91.0938C64.538 91.3466 64.7553 91.6818 64.9173 92.0994C65.0792 92.517 65.1602 93.0312 65.1602 93.642V94.0682H60.1147V93.1989H64.1374C64.1374 92.8295 64.0636 92.5 63.9158 92.2102C63.771 91.9205 63.5636 91.6918 63.2937 91.5241C63.0266 91.3565 62.7113 91.2727 62.3477 91.2727C61.9471 91.2727 61.6005 91.3722 61.3079 91.571C61.0181 91.767 60.7951 92.0227 60.6388 92.3381C60.4826 92.6534 60.4045 92.9915 60.4045 93.3523V93.9318C60.4045 94.4261 60.4897 94.8452 60.6602 95.1889C60.8335 95.5298 61.0735 95.7898 61.3803 95.9688C61.6871 96.1449 62.0437 96.233 62.4499 96.233C62.7141 96.233 62.9528 96.196 63.1658 96.1222C63.3817 96.0455 63.5678 95.9318 63.7241 95.7812C63.8803 95.6278 64.0011 95.4375 64.0863 95.2102L65.0579 95.483C64.9556 95.8125 64.7837 96.1023 64.5423 96.3523C64.3008 96.5994 64.0025 96.7926 63.6474 96.9318C63.2923 97.0682 62.8931 97.1364 62.4499 97.1364ZM70.2013 97V88.2727H75.4343V89.2102H71.2582V92.1591H75.0423V93.0966H71.2582V97H70.2013ZM78.1136 88.2727V97H77.108V88.2727H78.1136ZM81.8817 97.1534C81.467 97.1534 81.0906 97.0753 80.7525 96.919C80.4144 96.7599 80.146 96.5312 79.9471 96.233C79.7482 95.9318 79.6488 95.5682 79.6488 95.142C79.6488 94.767 79.7227 94.4631 79.8704 94.2301C80.0181 93.9943 80.2156 93.8097 80.4627 93.6761C80.7099 93.5426 80.9826 93.4432 81.2809 93.3778C81.582 93.3097 81.8846 93.2557 82.1886 93.2159C82.5863 93.1648 82.9087 93.1264 83.1559 93.1009C83.4059 93.0724 83.5877 93.0256 83.7013 92.9602C83.8178 92.8949 83.8761 92.7812 83.8761 92.6193V92.5852C83.8761 92.1648 83.761 91.8381 83.5309 91.6051C83.3036 91.3722 82.9585 91.2557 82.4954 91.2557C82.0153 91.2557 81.6388 91.3608 81.3661 91.571C81.0934 91.7812 80.9016 92.0057 80.7908 92.2443L79.8363 91.9034C80.0067 91.5057 80.234 91.196 80.5181 90.9744C80.805 90.75 81.1175 90.5937 81.4556 90.5057C81.7965 90.4148 82.1317 90.3693 82.4613 90.3693C82.6715 90.3693 82.913 90.3949 83.1857 90.446C83.4613 90.4943 83.7269 90.5952 83.9826 90.7486C84.2411 90.902 84.4556 91.1335 84.6261 91.4432C84.7965 91.7528 84.8817 92.1676 84.8817 92.6875V97H83.8761V96.1136H83.8249C83.7567 96.2557 83.6431 96.4077 83.484 96.5696C83.3249 96.7315 83.1133 96.8693 82.8491 96.983C82.5849 97.0966 82.2624 97.1534 81.8817 97.1534ZM82.0352 96.25C82.4329 96.25 82.7681 96.1719 83.0408 96.0156C83.3164 95.8594 83.5238 95.6577 83.663 95.4105C83.805 95.1634 83.8761 94.9034 83.8761 94.6307V93.7102C83.8335 93.7614 83.7397 93.8082 83.5948 93.8509C83.4528 93.8906 83.288 93.9261 83.1005 93.9574C82.9158 93.9858 82.7354 94.0114 82.5593 94.0341C82.386 94.054 82.2454 94.071 82.1374 94.0852C81.8761 94.1193 81.6317 94.1747 81.4045 94.2514C81.18 94.3253 80.9982 94.4375 80.859 94.5881C80.7227 94.7358 80.6545 94.9375 80.6545 95.1932C80.6545 95.5426 80.7837 95.8068 81.0423 95.9858C81.3036 96.1619 81.6346 96.25 82.0352 96.25ZM91.8352 90.4545L89.4148 97H88.392L85.9716 90.4545H87.0625L88.8693 95.6705H88.9375L90.7443 90.4545H91.8352ZM95.5874 97.1364C94.9964 97.1364 94.478 96.9957 94.032 96.7145C93.5888 96.4332 93.2422 96.0398 92.9922 95.5341C92.745 95.0284 92.6214 94.4375 92.6214 93.7614C92.6214 93.0795 92.745 92.4844 92.9922 91.9759C93.2422 91.4673 93.5888 91.0724 94.032 90.7912C94.478 90.5099 94.9964 90.3693 95.5874 90.3693C96.1783 90.3693 96.6953 90.5099 97.1385 90.7912C97.5845 91.0724 97.9311 91.4673 98.1783 91.9759C98.4283 92.4844 98.5533 93.0795 98.5533 93.7614C98.5533 94.4375 98.4283 95.0284 98.1783 95.5341C97.9311 96.0398 97.5845 96.4332 97.1385 96.7145C96.6953 96.9957 96.1783 97.1364 95.5874 97.1364ZM95.5874 96.233C96.0362 96.233 96.4055 96.1179 96.6953 95.8878C96.9851 95.6577 97.1996 95.3551 97.3388 94.9801C97.478 94.6051 97.5476 94.1989 97.5476 93.7614C97.5476 93.3239 97.478 92.9162 97.3388 92.5384C97.1996 92.1605 96.9851 91.8551 96.6953 91.6222C96.4055 91.3892 96.0362 91.2727 95.5874 91.2727C95.1385 91.2727 94.7692 91.3892 94.4794 91.6222C94.1896 91.8551 93.9751 92.1605 93.8359 92.5384C93.6967 92.9162 93.6271 93.3239 93.6271 93.7614C93.6271 94.1989 93.6967 94.6051 93.8359 94.9801C93.9751 95.3551 94.1896 95.6577 94.4794 95.8878C94.7692 96.1179 95.1385 96.233 95.5874 96.233ZM100.088 97V90.4545H101.06V91.4432H101.128C101.248 91.1193 101.463 90.8565 101.776 90.6548C102.088 90.4531 102.441 90.3523 102.833 90.3523C102.907 90.3523 102.999 90.3537 103.11 90.3565C103.221 90.3594 103.304 90.3636 103.361 90.3693V91.392C103.327 91.3835 103.249 91.3707 103.127 91.3537C103.007 91.3338 102.881 91.3239 102.748 91.3239C102.429 91.3239 102.145 91.3906 101.895 91.5241C101.648 91.6548 101.452 91.8366 101.307 92.0696C101.165 92.2997 101.094 92.5625 101.094 92.858V97H100.088ZM105.639 88.2727V89.0398C105.639 89.2727 105.596 89.5213 105.511 89.7855C105.429 90.0469 105.306 90.3011 105.145 90.5483C104.985 90.7926 104.792 91.0057 104.565 91.1875L104.02 90.7443C104.199 90.4886 104.353 90.223 104.484 89.9474C104.618 89.669 104.684 89.3722 104.684 89.0568V88.2727H105.639ZM107.821 88.2727V89.0398C107.821 89.2727 107.778 89.5213 107.693 89.7855C107.61 90.0469 107.488 90.3011 107.326 90.5483C107.167 90.7926 106.974 91.0057 106.747 91.1875L106.201 90.7443C106.38 90.4886 106.535 90.223 106.666 89.9474C106.799 89.669 106.866 89.3722 106.866 89.0568V88.2727H107.821Z" fill="black"/>
<defs>
<clipPath id="clip0_18_18">
<rect width="52" height="57.4517" fill="white" transform="translate(32 2)"/>
</clipPath>
</defs>
</svg>
