<svg width="24" height="27" viewBox="0 0 24 27" fill="none" xmlns="http://www.w3.org/2000/svg">
<g clip-path="url(#clip0_18_6)">
<path fill-rule="evenodd" clip-rule="evenodd" d="M17.6539 23.4734C17.272 23.8884 16.8642 24.2709 16.4287 24.6109C16.0086 24.8968 14.0409 25.2601 10.9573 25.2483C7.8145 25.2365 6.06112 24.8505 5.64679 24.6449C5.20323 24.303 4.7876 23.9167 4.39912 23.4972C1.72597 23.7125 0 24.0514 0 24.4331C0 24.7097 1.28945 24.9854 3.07938 25.2154L3.02899 25.2363L3.94302 25.6148C3.93075 25.6279 3.92422 25.6416 3.92422 25.6558C3.92422 25.9808 7.1109 26.5162 11.0464 26.5162C14.9818 26.5162 18.1766 25.9808 18.1766 25.6558C18.1766 25.6427 18.17 25.6301 18.1596 25.618L18.983 25.277C20.9168 25.0261 22.36 24.7185 22.36 24.4331C22.36 24.0369 20.5012 23.687 17.6539 23.4734ZM12.8175 11.0209C14.0968 10.3572 14.2993 9.22751 14.3458 8.43188C14.5207 5.43113 11.0842 4.49629 12.8175 0.000106409C12.8256 -0.0205072 9.44283 2.95776 11.2231 5.51064C13.6036 8.92447 12.8023 11.0289 12.8175 11.0209ZM22.6665 15.2598C21.4421 14.8192 20.7137 16.0008 20.4002 14.4706C20.3952 14.4468 20.373 14.4856 20.3393 14.5662C20.3435 14.5493 20.3487 14.5327 20.3487 14.5158C20.3487 13.7406 16.1807 13.112 11.0393 13.112C5.89795 13.112 1.73014 13.7403 1.73014 14.5158C1.73014 14.5276 1.73406 14.5394 1.73589 14.5512C1.72962 14.5531 1.72284 14.5549 1.71657 14.5568C1.7009 14.8127 1.69281 15.0708 1.69281 15.3313C1.69281 19.1006 3.35064 22.4197 5.86453 24.3576C6.29583 24.5825 8.54081 24.9212 11.0466 24.8866C13.96 24.8459 15.9238 24.6002 16.1822 24.3247C17.1709 23.5534 18.0225 22.5651 18.6935 21.4219C19.9691 20.0347 23.3237 20.8391 23.9638 17.8221C23.9714 17.7846 24.3228 15.8557 22.6665 15.2598ZM20.3119 14.6336C20.3062 14.6489 20.2994 14.6663 20.2934 14.6832C20.2931 14.6783 20.2931 14.6735 20.2928 14.6687C20.3009 14.6572 20.3054 14.6454 20.3119 14.6336ZM11.002 15.9197C6.35248 15.9197 2.5836 15.4127 2.5836 14.7876C2.5836 14.1625 6.35274 13.6554 11.002 13.6554C15.6512 13.6554 19.4203 14.1625 19.4203 14.7876C19.4203 15.4127 15.6515 15.9197 11.002 15.9197ZM23.0728 18.1837C22.3666 19.5239 21.069 19.3394 19.3313 20.1763C19.324 20.1798 20.2291 17.1916 20.2464 17.1381C20.5531 16.1738 21.6828 15.7663 22.3734 16.0014C23.7017 16.4535 23.1485 18.04 23.0728 18.1837ZM9.94096 10.9334C10.7714 10.4981 10.9028 9.75731 10.9328 9.23555C11.0464 7.26761 8.81573 6.65483 9.94096 3.70654C9.94618 3.69289 7.75028 5.64583 8.9058 7.31982C10.4511 9.5584 9.93104 10.9384 9.94096 10.9334Z" fill="black"/>
</g>
<defs>
<clipPath id="clip0_18_6">
<rect width="24" height="26.5162" fill="white"/>
</clipPath>
</defs>
</svg>
