<svg width="25" height="25" viewBox="0 0 25 25" fill="none" xmlns="http://www.w3.org/2000/svg">
<path d="M10.3854 1.94C5.74713 1.94 1.97815 5.59813 1.97815 10.1C1.97815 14.6019 5.74713 18.26 10.3854 18.26C12.2206 18.26 13.9168 17.6863 15.3 16.715L21.8063 23.015L23.1972 21.665L16.7681 15.41C18.0316 13.9813 18.7927 12.1269 18.7927 10.1C18.7927 5.59813 15.0237 1.94 10.3854 1.94ZM10.3854 2.9C14.4886 2.9 17.8036 6.1175 17.8036 10.1C17.8036 14.0825 14.4886 17.3 10.3854 17.3C6.28224 17.3 2.96724 14.0825 2.96724 10.1C2.96724 6.1175 6.28224 2.9 10.3854 2.9Z" fill="black"/>
</svg>
