<svg width="10" height="11" viewBox="0 0 10 11" fill="none" xmlns="http://www.w3.org/2000/svg">
<path d="M5.72043 1.64174L6.45376 3.1084C6.55376 3.31257 6.82043 3.5084 7.04543 3.5459L8.3746 3.76674C9.2246 3.9084 9.42459 4.52507 8.8121 5.1334L7.77876 6.16674C7.60376 6.34174 7.50793 6.67924 7.5621 6.9209L7.85793 8.20007C8.09126 9.21257 7.55376 9.60424 6.65793 9.07507L5.4121 8.33757C5.1871 8.20424 4.81626 8.20424 4.5871 8.33757L3.34126 9.07507C2.4496 9.60424 1.90793 9.2084 2.14126 8.20007L2.4371 6.9209C2.49126 6.67924 2.39543 6.34174 2.22043 6.16674L1.1871 5.1334C0.578763 4.52507 0.774596 3.9084 1.6246 3.76674L2.95376 3.5459C3.1746 3.5084 3.44126 3.31257 3.54126 3.1084L4.2746 1.64174C4.6746 0.845903 5.3246 0.845903 5.72043 1.64174Z" fill="#D17842"/>
</svg>
