<svg width="66" height="20" viewBox="0 0 66 20" fill="none" xmlns="http://www.w3.org/2000/svg">
<g clip-path="url(#clip0_57_3)">
<path d="M14.3713 6.51427L12.4666 8.41904L12.3713 8.51427L11.7666 9.11904L11.319 9.57142L10.7142 10.1762L10.619 10.2667L10.3571 10.5333L10.2618 10.6238L9.37134 11.5143L9.2761 11.6048C9.01586 11.8646 8.72101 12.0873 8.39991 12.2667C8.24665 12.3524 8.08752 12.4272 7.92372 12.4905C7.55487 12.6334 7.16617 12.7185 6.77134 12.7428C6.53214 12.7643 6.2915 12.7643 6.05229 12.7428C5.52998 12.6861 5.02458 12.5241 4.56658 12.2667C4.35918 12.1593 4.16701 12.0248 3.99515 11.8667L3.88563 11.7571L0.414198 8.25237L0.342769 8.18094C0.280939 8.11408 0.226645 8.04062 0.180865 7.96189C0.061748 7.75996 -0.00076031 7.52967 -8.77623e-05 7.29523C-0.00257491 7.25876 -0.00257491 7.22217 -8.77623e-05 7.1857C-8.77623e-05 7.12856 -8.77623e-05 7.07142 -8.77623e-05 7.01904V6.95713C0.0464577 6.78401 0.127437 6.62205 0.238007 6.48094C0.267226 6.4438 0.299053 6.40879 0.333246 6.37618L0.39515 6.31427L4.13325 2.6238L6.37134 0.390465C6.60948 0.151924 6.92939 0.012817 7.26626 0.00132274C7.60313 -0.0101715 7.93178 0.106806 8.18563 0.32856L14.3713 6.51427Z" fill="#005BAA"/>
<path d="M7.64289 14.8191C7.34169 14.818 7.04433 14.7513 6.77146 14.6238L6.06193 13.9191L5.88574 13.7476L5.85717 13.7143L5.5286 13.3857L3.87622 11.7143L3.98574 11.8238C4.15879 11.984 4.35259 12.1201 4.56193 12.2286C5.01994 12.486 5.52534 12.648 6.04765 12.7048C6.28685 12.7262 6.52749 12.7262 6.7667 12.7048C7.16152 12.6805 7.55023 12.5953 7.91908 12.4524C8.08288 12.3891 8.24201 12.3143 8.39527 12.2286C8.71637 12.0493 9.01121 11.8265 9.27146 11.5667L9.3667 11.4762L10.2572 10.5857L10.3524 10.4952L10.6143 10.2286L10.7096 10.1381L11.3143 9.53334L11.7619 9.08096L12.381 8.50953L12.4762 8.41429L16.3096 4.60477L17.881 2.85715L17.9667 2.7762C18.1987 2.54502 18.513 2.41522 18.8405 2.41522C19.1681 2.41522 19.4823 2.54502 19.7143 2.7762L20.581 3.64287H20.6096C20.4151 3.63475 20.221 3.66647 20.0392 3.73607C19.8574 3.80568 19.6917 3.9117 19.5524 4.04763L16.6238 6.90477L16.5953 6.9381L11.5096 12.0048L9.6286 13.8476L9.51432 13.9667C9.25833 14.2152 8.96411 14.421 8.64289 14.5762C8.46426 14.6629 8.27549 14.7269 8.08098 14.7667C7.96962 14.79 7.85655 14.8043 7.74289 14.8095L7.64289 14.8191Z" fill="#ED1C24"/>
<path d="M25.2761 10.0809L25.1809 10.1762L21.0333 14.3857L16.6666 18.8095C16.5309 18.9465 16.3844 19.0723 16.2285 19.1857L16.1666 19.2286C15.4075 19.771 14.4831 20.032 13.5524 19.9669C12.6217 19.9017 11.7427 19.5143 11.0666 18.8714L10.9523 18.8047L10.2047 18.0571L8.09517 15.9476L7.3904 15.2381L7.29517 15.1381C7.40847 15.1571 7.52315 15.1666 7.63802 15.1667H7.73802C7.87263 15.1609 8.00648 15.1434 8.13802 15.1143C8.36107 15.0701 8.57724 14.9964 8.78088 14.8952C9.13177 14.7211 9.45314 14.4929 9.73326 14.219L9.86183 14.0809L11.4809 12.4905L17.0475 7.01427L17.0761 6.97617L19.8095 4.32856C19.987 4.15835 20.2173 4.05379 20.4623 4.03215C20.7073 4.0105 20.9524 4.07307 21.1571 4.20951L21.7952 4.85237L25.2714 8.33332C25.3024 8.36276 25.331 8.39461 25.3571 8.42856C25.5507 8.66505 25.6497 8.96503 25.6347 9.27033C25.6198 9.57564 25.492 9.86451 25.2761 10.0809Z" fill="#ED1C24"/>
<path d="M11.8381 5.47142C11.7888 5.51694 11.7242 5.54221 11.6571 5.54221C11.59 5.54221 11.5254 5.51694 11.4762 5.47142C11.085 5.07777 10.6201 4.76501 10.1081 4.55101C9.5961 4.33701 9.04694 4.22596 8.492 4.22419C7.37125 4.22062 6.29498 4.66241 5.49996 5.45237C4.70494 6.24234 4.2563 7.31577 4.25273 8.43652C4.24916 9.55728 4.69095 10.6335 5.48091 11.4286L6.76663 12.7238C6.768 12.7333 6.768 12.7429 6.76663 12.7524C6.53379 12.7739 6.29947 12.7739 6.06663 12.7524L5.11425 11.8C4.23019 10.9096 3.73604 9.70453 3.74051 8.44982C3.74497 7.19512 4.24769 5.99357 5.13806 5.10952C6.02843 4.22546 7.23352 3.73131 8.48823 3.73578C9.74293 3.74024 10.9445 4.24296 11.8285 5.13333C11.8717 5.17851 11.8965 5.23809 11.8983 5.30054C11.9001 5.363 11.8786 5.42388 11.8381 5.47142Z" fill="#009EDB"/>
<path d="M13.8096 7.09048L13.4525 7.44286L12.8287 6.81429C12.8052 6.79085 12.7866 6.76302 12.7739 6.73238C12.7612 6.70173 12.7546 6.66889 12.7546 6.63572C12.7546 6.60255 12.7612 6.56971 12.7739 6.53907C12.7866 6.50843 12.8052 6.48059 12.8287 6.45715C12.8521 6.43368 12.8799 6.41506 12.9106 6.40236C12.9412 6.38966 12.9741 6.38312 13.0072 6.38312C13.0404 6.38312 13.0733 6.38966 13.1039 6.40236C13.1345 6.41506 13.1624 6.43368 13.1858 6.45715L13.8096 7.09048Z" fill="#009EDB"/>
<path d="M8.41895 12.2572C8.26588 12.3419 8.10671 12.4151 7.94276 12.4762L6.19038 10.7238C5.65904 10.1886 5.33117 9.48472 5.26336 8.7336C5.19555 7.98249 5.39205 7.23126 5.81895 6.60954C5.85744 6.55472 5.91579 6.51709 5.9816 6.50464C6.04741 6.49219 6.11548 6.5059 6.17133 6.54287C6.1986 6.56189 6.22184 6.58611 6.23972 6.61414C6.2576 6.64217 6.26976 6.67345 6.27551 6.7062C6.28127 6.73894 6.28049 6.7725 6.27324 6.80494C6.26598 6.83739 6.25239 6.86808 6.23324 6.89525C5.87338 7.42001 5.70787 8.05386 5.76524 8.68756C5.82261 9.32126 6.09927 9.91509 6.54752 10.3667L8.41895 12.2572Z" fill="#009EDB"/>
<path d="M12.7429 8.14286L12.481 8.40477L12.3953 8.49048L10.4286 6.50477C10.0687 6.14327 9.61487 5.88969 9.11837 5.77272C8.62186 5.65574 8.10252 5.68004 7.61911 5.84286C7.58682 5.8578 7.55173 5.86575 7.51616 5.86618C7.48058 5.86661 7.44532 5.85951 7.41268 5.84535C7.38004 5.83119 7.35076 5.81028 7.32677 5.78401C7.30277 5.75774 7.2846 5.72669 7.27346 5.69291C7.26231 5.65912 7.25843 5.62336 7.26207 5.58796C7.26571 5.55257 7.2768 5.51835 7.2946 5.48754C7.3124 5.45674 7.33652 5.43004 7.36536 5.40921C7.3942 5.38838 7.42712 5.37389 7.46197 5.36667C8.03199 5.17979 8.64284 5.15566 9.22583 5.29699C9.80882 5.43832 10.3408 5.7395 10.762 6.16667L12.7429 8.14286Z" fill="#009EDB"/>
<path d="M11.6904 9.19999L11.3333 9.55713L9.35707 7.56665C9.11901 7.37152 8.8168 7.27206 8.50939 7.28767C8.20197 7.30329 7.9114 7.43286 7.69434 7.65111C7.47728 7.86935 7.3493 8.16063 7.33537 8.46813C7.32143 8.77563 7.42254 9.07728 7.61897 9.31427L8.8904 10.5952C8.93776 10.6426 8.96437 10.7068 8.96437 10.7738C8.96437 10.8408 8.93776 10.905 8.8904 10.9524C8.84304 10.9997 8.77881 11.0263 8.71183 11.0263C8.64485 11.0263 8.58062 10.9997 8.53326 10.9524L7.23802 9.67141C6.93579 9.3379 6.77389 8.90064 6.78604 8.45072C6.79819 8.0008 6.98345 7.57292 7.30324 7.2562C7.62303 6.93948 8.05268 6.75835 8.50269 6.75054C8.95271 6.74273 9.38839 6.90884 9.71897 7.21427L11.6904 9.19999Z" fill="#009EDB"/>
<path d="M10.6334 10.2524L10.3715 10.519L10.2858 10.6L8.30004 8.61904C8.25268 8.57168 8.22607 8.50744 8.22607 8.44047C8.22607 8.37349 8.25268 8.30925 8.30004 8.26189C8.3474 8.21453 8.41164 8.18793 8.47861 8.18793C8.54559 8.18793 8.60982 8.21453 8.65718 8.26189L10.6334 10.2524Z" fill="#009EDB"/>
<path fill-rule="evenodd" clip-rule="evenodd" d="M60.3239 10.1429L57.381 5.92381L57.0858 5.65238H60.0001L61.9667 8.83809L62.1239 8.70952L63.3096 6.94286C63.4582 6.74985 63.5245 6.50598 63.4942 6.2643C63.4639 6.02262 63.3393 5.80269 63.1477 5.65238H65.8858L62.7191 10.1381V13.3952L63.2763 14.0619H59.8572L60.3334 13.4048C60.3334 12.3238 60.2953 11.2238 60.3334 10.1429H60.3239ZM52.3382 5.65238C52.5269 5.84782 52.6443 6.10111 52.6715 6.37143C52.6902 6.53283 52.669 6.69637 52.6096 6.84762L50.4239 13.1905C50.2793 13.5091 50.0664 13.7921 49.8001 14.019H52.181C52.0062 13.8757 51.888 13.6748 51.8477 13.4524C51.8047 13.2966 51.8047 13.132 51.8477 12.9762L52.3239 11.4714H55.1001L55.5334 12.6333C55.5771 12.7496 55.6044 12.8714 55.6143 12.9952C55.6426 13.1929 55.6163 13.3946 55.5382 13.5784C55.4602 13.7622 55.3334 13.9212 55.1715 14.0381H58.9096C58.541 13.7415 58.2378 13.3718 58.0191 12.9524L55.2858 5.62857L52.3382 5.65238ZM54.7191 10.4143H52.7334L53.6858 7.67143L54.7096 10.4143H54.7191ZM44.762 5.65714H48.9286C49.5332 5.6584 50.1126 5.89912 50.5401 6.32661C50.9676 6.7541 51.2083 7.33353 51.2096 7.93809V8.21905C51.2021 8.81783 50.96 9.38976 50.5352 9.81185C50.1104 10.2339 49.537 10.4725 48.9382 10.4762L47.8953 10.5095C48.2859 10.2965 48.6 9.96662 48.7938 9.56617C48.9877 9.16571 49.0514 8.71468 48.9762 8.27619C48.8953 7.57143 48.5334 6.89524 47.9286 6.88095H47.5477V13.1238C47.5459 13.2242 47.5759 13.3225 47.6334 13.4048C47.7476 13.5838 47.8749 13.7541 48.0143 13.9143L48.1239 14.0476H44.8858L45.0239 13.8619C45.1253 13.7283 45.2101 13.5827 45.2762 13.4286C45.3181 13.3392 45.3392 13.2415 45.3382 13.1429V6.42381C45.3239 6.07143 44.9762 5.87143 44.762 5.65714Z" fill="#005BAA"/>
<path fill-rule="evenodd" clip-rule="evenodd" d="M27.2144 5.61429H29.8286L32.0239 11.9048L33.8858 6.69524C33.9197 6.54335 33.8924 6.38419 33.8096 6.25238C33.7096 6.0381 33.6001 5.83334 33.4953 5.62381H35.4477C35.3334 6.04762 35.162 6.51429 35.0144 6.94286L32.4905 14.2857C31.7328 14.1645 31.0238 13.8347 30.4429 13.3333C30.0527 12.9135 29.7701 12.4053 29.6191 11.8524L27.5096 6.2381C27.4257 6.02358 27.3271 5.81514 27.2144 5.61429ZM37.6524 8.57143V13.0667C37.6524 13.2476 37.6953 13.281 37.8096 13.4286L38.3239 14.1H35.862L36.2763 13.4667C36.3779 13.3436 36.4319 13.1881 36.4286 13.0286V6.7381L35.7382 5.61429H38.2905L42.4191 10.9524V6.71429C42.4236 6.55389 42.3713 6.39705 42.2715 6.27143C42.1334 6.05715 41.9858 5.85238 41.8477 5.64286H44.2858L43.8096 6.29524C43.6953 6.4381 43.6524 6.47143 43.6524 6.65715V14.2857C43.1537 14.2599 42.6663 14.127 42.2234 13.8961C41.7806 13.6652 41.3926 13.3417 41.0858 12.9476L37.6524 8.57143Z" fill="#ED1C24"/>
<path d="M29.8285 16.9333C29.8285 17.2667 29.9713 17.4429 30.338 17.4429C30.4811 17.4429 30.6231 17.4171 30.7571 17.3667C30.8237 17.3381 30.8428 17.3667 30.8428 17.4286V17.4667C30.8428 17.5238 30.8428 17.5476 30.7571 17.581C30.6252 17.6327 30.4843 17.657 30.3428 17.6524C29.838 17.6524 29.5999 17.4286 29.5999 16.9333V16.4572C29.5858 16.3567 29.5951 16.2544 29.6271 16.1581C29.6591 16.0619 29.713 15.9744 29.7845 15.9024C29.856 15.8305 29.9431 15.7761 30.0392 15.7434C30.1352 15.7108 30.2375 15.7008 30.338 15.7143C30.4764 15.7152 30.6135 15.741 30.7428 15.7905C30.8094 15.8143 30.8237 15.8429 30.8237 15.9V15.9381C30.8237 16.0095 30.7952 16.0286 30.7332 16.0048C30.6054 15.9501 30.4676 15.9225 30.3285 15.9238C29.9761 15.9238 29.8523 16.0953 29.8523 16.4667L29.8285 16.9333Z" fill="#009EDB"/>
<path d="M30.3427 17.6572C29.8332 17.6572 29.5951 17.4238 29.5951 16.9333V16.4572C29.5808 16.3563 29.5902 16.2534 29.6225 16.1568C29.6547 16.0601 29.709 15.9723 29.7811 15.9003C29.8531 15.8282 29.941 15.7739 30.0376 15.7416C30.1343 15.7094 30.2371 15.7 30.338 15.7143C30.4764 15.7152 30.6135 15.741 30.7427 15.7905C30.8142 15.8191 30.8285 15.8476 30.8285 15.9048V15.9429C30.8285 15.981 30.8285 16.0048 30.8285 16.0143C30.8285 16.0238 30.7904 16.0143 30.757 16.0143C30.6281 15.9635 30.4908 15.9377 30.3523 15.9381C30.0094 15.9381 29.8761 16.1048 29.8761 16.4762V16.9524C29.8761 17.3 30.0285 17.4572 30.3808 17.4572C30.5226 17.459 30.6633 17.4332 30.7951 17.381C30.8332 17.381 30.8523 17.381 30.8666 17.381C30.8808 17.381 30.8666 17.4143 30.8666 17.4524V17.4905C30.8666 17.5524 30.8666 17.5762 30.7808 17.6048C30.6409 17.6563 30.4909 17.6742 30.3427 17.6572ZM30.3427 15.7191C30.2416 15.7044 30.1384 15.7137 30.0414 15.7462C29.9445 15.7787 29.8566 15.8336 29.7848 15.9063C29.7129 15.9791 29.6592 16.0677 29.6279 16.165C29.5966 16.2624 29.5887 16.3657 29.6046 16.4667V16.9429C29.6046 17.4191 29.8427 17.6572 30.3475 17.6572C30.4877 17.6651 30.6278 17.6407 30.757 17.5857C30.8285 17.5572 30.8427 17.5333 30.8427 17.4762V17.4286C30.8427 17.3905 30.8427 17.3714 30.8427 17.3619C30.8427 17.3524 30.8142 17.3619 30.7808 17.3619C30.6474 17.4141 30.5051 17.44 30.3618 17.4381C30.0094 17.4381 29.8475 17.281 29.8475 16.9286V16.4524C29.8475 16.0762 30.0046 15.9095 30.3523 15.9095C30.4925 15.9073 30.6318 15.9332 30.7618 15.9857C30.7904 15.9857 30.8094 15.9857 30.8237 15.9857C30.8284 15.9752 30.8309 15.9639 30.8309 15.9524C30.8309 15.9409 30.8284 15.9295 30.8237 15.9191V15.881C30.8237 15.8286 30.8237 15.8 30.738 15.7714C30.6093 15.728 30.4737 15.7086 30.338 15.7143L30.3427 15.7191Z" fill="#009EDB"/>
<path d="M31.1523 15.7143C31.1523 15.6333 31.1523 15.619 31.2428 15.619H31.2762C31.3523 15.619 31.3666 15.619 31.3666 15.7143V16.3857C31.4219 16.3142 31.495 16.2585 31.5785 16.2242C31.6621 16.19 31.7533 16.1783 31.8428 16.1905C32.1809 16.1905 32.3809 16.3333 32.3809 16.6667V17.5238C32.3809 17.6 32.3809 17.6143 32.2904 17.6143H32.2523C32.1762 17.6143 32.1619 17.6143 32.1619 17.5238V16.7C32.1619 16.4714 32.0619 16.3714 31.7904 16.3714C31.519 16.3714 31.3904 16.481 31.3904 16.7476V17.5333C31.3904 17.6095 31.3904 17.6238 31.3 17.6238H31.2666C31.1952 17.6238 31.1762 17.6238 31.1762 17.5333L31.1523 15.7143Z" fill="#009EDB"/>
<path d="M32.2668 17.619H32.2287C32.1525 17.619 32.1382 17.619 32.1382 17.5238V16.7C32.1382 16.4667 32.0287 16.3762 31.7668 16.3762C31.5049 16.3762 31.3715 16.4857 31.3715 16.7476V17.5333C31.3715 17.6095 31.3715 17.6286 31.2763 17.6286H31.2429C31.1668 17.6286 31.1477 17.6286 31.1477 17.5333V15.7143C31.1477 15.6286 31.1477 15.6143 31.2429 15.6143H31.2763C31.3525 15.6143 31.3715 15.6143 31.3715 15.7143V16.3762C31.4273 16.3056 31.5006 16.2508 31.5842 16.2174C31.6677 16.1839 31.7586 16.173 31.8477 16.1857C32.2048 16.1857 32.3858 16.3571 32.3858 16.7V17.5571C32.381 17.619 32.3477 17.619 32.2668 17.619ZM31.7668 16.3571C32.0334 16.3571 32.1429 16.4571 32.1429 16.6905V17.5238C32.1429 17.6 32.1429 17.6095 32.2287 17.6095H32.2668C32.3429 17.6095 32.3572 17.6095 32.3572 17.5238V16.6667C32.3572 16.3286 32.1763 16.1619 31.8239 16.1619C31.7342 16.1454 31.6416 16.155 31.5572 16.1897C31.4727 16.2243 31.4 16.2824 31.3477 16.3571V15.7143C31.3477 15.6381 31.3477 15.6238 31.262 15.6238H31.2287C31.1572 15.6238 31.1382 15.6238 31.1382 15.7143V17.5571C31.1382 17.6333 31.1382 17.6429 31.2287 17.6429H31.262C31.3382 17.6429 31.3477 17.6429 31.3477 17.5571V16.7476C31.362 16.481 31.4858 16.3667 31.7668 16.3667V16.3571Z" fill="#009EDB"/>
<path d="M32.6667 17.0428V16.7762C32.6667 16.3714 32.881 16.1667 33.3048 16.1667C33.7287 16.1667 33.9382 16.3762 33.9382 16.7762V17.0428C33.9382 17.4524 33.7287 17.6524 33.3048 17.6524C32.881 17.6524 32.6667 17.4428 32.6667 17.0428ZM33.7191 16.7762C33.7191 16.4952 33.6191 16.3714 33.3048 16.3714C32.9906 16.3714 32.8858 16.4952 32.8858 16.7762V17.0428C32.8858 17.3238 32.9906 17.4476 33.3048 17.4476C33.6191 17.4476 33.7191 17.3238 33.7191 17.0428V16.7762Z" fill="#009EDB"/>
<path d="M33.3047 17.6571C32.8666 17.6571 32.6666 17.4619 32.6666 17.0429V16.7762C32.6584 16.6903 32.6682 16.6036 32.6952 16.5216C32.7223 16.4396 32.7661 16.3642 32.8238 16.3C32.9577 16.1911 33.1277 16.1367 33.3 16.1476C33.7333 16.1476 33.9333 16.3429 33.9333 16.7619V17.0286C33.9462 17.1141 33.9388 17.2014 33.9118 17.2836C33.8848 17.3657 33.8388 17.4404 33.7777 17.5015C33.7165 17.5627 33.6419 17.6086 33.5597 17.6356C33.4776 17.6627 33.3902 17.67 33.3047 17.6571ZM33.3047 16.1714C33.1329 16.1577 32.9624 16.2106 32.8285 16.3191C32.7698 16.3826 32.7254 16.4579 32.6983 16.5401C32.6712 16.6222 32.662 16.7092 32.6714 16.7952V17.0619C32.6714 17.4762 32.8714 17.6667 33.3047 17.6667C33.4767 17.6819 33.6477 17.6289 33.7809 17.5191C33.8396 17.4555 33.8841 17.3802 33.9112 17.298C33.9383 17.2159 33.9474 17.1289 33.9381 17.0429V16.7762C33.9333 16.3619 33.7333 16.1905 33.3047 16.1905V16.1714ZM33.3047 17.4524C33 17.4524 32.8809 17.3381 32.8809 17.0429V16.7762C32.8809 16.481 32.9952 16.3667 33.3047 16.3667C33.6142 16.3667 33.7238 16.481 33.7238 16.7762V17.0429C33.7238 17.3429 33.6095 17.4524 33.3047 17.4524ZM33.3047 16.3762C33 16.3762 32.8904 16.481 32.8904 16.7762V17.0429C32.8904 17.3333 33.0047 17.4429 33.3047 17.4429C33.6047 17.4429 33.719 17.3381 33.719 17.0429V16.7762C33.719 16.481 33.6047 16.3762 33.3047 16.3762Z" fill="#009EDB"/>
<path d="M34.9905 16.7667C34.9905 16.3857 35.1952 16.1667 35.6381 16.1667C35.7238 16.1639 35.8094 16.1768 35.8905 16.2048C35.9619 16.2048 35.981 16.2476 35.981 16.3143V16.3428C35.981 16.4143 35.981 16.4381 35.8905 16.4143C35.8113 16.3846 35.7273 16.3701 35.6429 16.3714C35.319 16.3714 35.2095 16.5 35.2095 16.7714V17.0524C35.2095 17.3428 35.3381 17.4476 35.6857 17.4476C35.773 17.4507 35.8602 17.4378 35.9429 17.4095C36.0095 17.3857 36.0286 17.4095 36.0286 17.4809V17.5095C36.0286 17.5714 36.0286 17.5952 35.9381 17.6143C35.8504 17.6422 35.7586 17.6551 35.6667 17.6524C35.2238 17.6524 35.0143 17.4619 35.0143 17.0524L34.9905 16.7667Z" fill="#009EDB"/>
<path d="M35.6429 17.6572C35.4715 17.6672 35.3023 17.6147 35.1667 17.5095C35.1068 17.4466 35.0614 17.3714 35.0334 17.2892C35.0055 17.207 34.9957 17.1197 35.0048 17.0333V16.7476C34.9996 16.6666 35.0113 16.5854 35.0392 16.5092C35.0671 16.433 35.1105 16.3633 35.1667 16.3048C35.2979 16.1903 35.469 16.1321 35.6429 16.1429C35.7285 16.1421 35.8137 16.1549 35.8952 16.181C35.9714 16.181 35.9857 16.2286 35.9857 16.2953V16.3238C35.9857 16.3667 35.9857 16.3905 35.9857 16.4C35.9747 16.4059 35.9625 16.4089 35.95 16.4089C35.9375 16.4089 35.9253 16.4059 35.9143 16.4C35.8342 16.3747 35.7507 16.3618 35.6667 16.3619C35.3571 16.3619 35.2333 16.4762 35.2333 16.7572V17.0381C35.2333 17.3238 35.3571 17.4286 35.7095 17.4286C35.7969 17.4322 35.8841 17.4192 35.9667 17.3905C36 17.3905 36.019 17.3905 36.0333 17.3905C36.0476 17.3905 36.0571 17.4238 36.0571 17.4667V17.4953C36.0571 17.5619 36.0571 17.5857 35.9619 17.6048C35.8595 17.6412 35.7515 17.6589 35.6429 17.6572ZM35.6429 16.1714C35.219 16.1714 35 16.3762 35 16.7667V17.0524C35 17.4619 35.2048 17.6476 35.6476 17.6476C35.7392 17.6496 35.8306 17.6384 35.919 17.6143C35.9905 17.6143 36.0095 17.5714 36.0095 17.5095V17.481C36.0095 17.4429 36.0095 17.4191 36.0095 17.4095C36.0095 17.4 35.9762 17.4095 35.9476 17.4095C35.8628 17.4356 35.7745 17.4484 35.6857 17.4476C35.3571 17.4476 35.2095 17.3333 35.2095 17.0476V16.7667C35.2095 16.481 35.3381 16.3619 35.6476 16.3619C35.7321 16.361 35.816 16.3756 35.8952 16.4048C35.9286 16.4048 35.9476 16.4048 35.9619 16.4048C35.9762 16.4048 35.9619 16.3714 35.9619 16.3333V16.3048C35.9619 16.2429 35.9619 16.2191 35.8762 16.1953C35.7975 16.1822 35.7173 16.1806 35.6381 16.1905L35.6429 16.1714Z" fill="#009EDB"/>
<path d="M36.4285 17.1095C36.4285 17.3381 36.5238 17.4476 36.8142 17.4476C37.1047 17.4476 37.2 17.3429 37.2 17.1095V16.2857C37.2 16.2143 37.2 16.1953 37.2952 16.1953H37.3238C37.4047 16.1953 37.419 16.1953 37.419 16.2857V17.1095C37.419 17.4619 37.2428 17.6524 36.8142 17.6524C36.3857 17.6524 36.1904 17.4714 36.1904 17.1095V16.2857C36.1904 16.2143 36.1904 16.1953 36.2857 16.1953H36.3142C36.3952 16.1953 36.4095 16.1953 36.4095 16.2857L36.4285 17.1095Z" fill="#009EDB"/>
<path d="M36.8142 17.6572C36.4142 17.6572 36.2095 17.4714 36.2095 17.1095V16.2857C36.2095 16.2143 36.2095 16.1905 36.3 16.1905H36.3333C36.4142 16.1905 36.4285 16.1905 36.4285 16.2857V17.1095C36.4285 17.3524 36.538 17.4429 36.8142 17.4429C37.0904 17.4429 37.1952 17.3524 37.1952 17.1095V16.2857C37.1952 16.2143 37.1952 16.1905 37.2952 16.1905H37.3238C37.4095 16.1905 37.419 16.1905 37.419 16.2857V17.1095C37.4257 17.1829 37.4169 17.2569 37.3931 17.3267C37.3693 17.3964 37.3311 17.4603 37.2809 17.5143C37.1492 17.6196 36.9823 17.6707 36.8142 17.6572ZM36.3 16.1905C36.2333 16.1905 36.2142 16.1905 36.2142 16.2762V17.1C36.2078 17.1742 36.2177 17.2488 36.2432 17.3188C36.2687 17.3887 36.3092 17.4522 36.3619 17.5048C36.4972 17.6095 36.668 17.6574 36.838 17.6381C36.9226 17.6475 37.0082 17.6401 37.0899 17.6164C37.1716 17.5927 37.2478 17.5532 37.3142 17.5C37.3646 17.4471 37.4029 17.384 37.4268 17.315C37.4506 17.246 37.4593 17.1727 37.4523 17.1V16.2857C37.4523 16.2191 37.4523 16.2 37.3619 16.2H37.3333C37.2619 16.2 37.2428 16.2 37.2428 16.2857V17.1095C37.2428 17.3572 37.1333 17.4524 36.8523 17.4524C36.5714 17.4524 36.4619 17.3572 36.4619 17.1095V16.2857C36.4619 16.2191 36.4619 16.2 36.3714 16.2L36.3 16.1905Z" fill="#009EDB"/>
<path d="M37.7095 17.0429V16.7762C37.7095 16.3714 37.919 16.1667 38.3476 16.1667C38.7761 16.1667 38.9761 16.3762 38.9761 16.7762V17.0429C38.9761 17.4524 38.7666 17.6524 38.3476 17.6524C37.9285 17.6524 37.7095 17.4429 37.7095 17.0429ZM38.7619 16.7762C38.7619 16.4952 38.6619 16.3714 38.3476 16.3714C38.0333 16.3714 37.9238 16.4952 37.9238 16.7762V17.0429C37.9238 17.3238 38.0333 17.4476 38.3476 17.4476C38.6619 17.4476 38.7619 17.3238 38.7619 17.0429V16.7762ZM38.1428 15.7857C38.2095 15.6809 38.2523 15.6429 38.3476 15.6429C38.4428 15.6429 38.4809 15.6714 38.5523 15.7857L38.6619 15.9571C38.6952 16.0095 38.6619 16.0238 38.6238 16.0238C38.5993 16.0278 38.5742 16.0234 38.5526 16.0113C38.531 15.9992 38.5141 15.9801 38.5047 15.9571L38.438 15.8429C38.3952 15.7619 38.3476 15.7619 38.2999 15.8429L38.238 15.9571C38.228 15.9796 38.211 15.9982 38.1896 16.0102C38.1681 16.0222 38.1434 16.027 38.119 16.0238H38.0904C38.0333 16.0238 38.0238 16.0238 38.0571 15.9571L38.1428 15.7857ZM38.2476 17.9095C38.2677 17.8899 38.2932 17.8767 38.3208 17.8715C38.3484 17.8663 38.3769 17.8694 38.4028 17.8803C38.4286 17.8912 38.4507 17.9095 38.4662 17.9329C38.4818 17.9563 38.4901 17.9838 38.4901 18.0119C38.4901 18.04 38.4818 18.0675 38.4662 18.0909C38.4507 18.1143 38.4286 18.1326 38.4028 18.1435C38.3769 18.1544 38.3484 18.1575 38.3208 18.1523C38.2932 18.1471 38.2677 18.1339 38.2476 18.1143C38.2339 18.101 38.223 18.0851 38.2156 18.0675C38.2082 18.0499 38.2043 18.031 38.2043 18.0119C38.2043 17.9928 38.2082 17.9739 38.2156 17.9563C38.223 17.9388 38.2339 17.9228 38.2476 17.9095Z" fill="#009EDB"/>
<path d="M38.3476 18.1571C38.3101 18.1559 38.2745 18.1405 38.2479 18.114C38.2214 18.0874 38.206 18.0518 38.2048 18.0143C38.2041 17.9948 38.2076 17.9754 38.215 17.9573C38.2224 17.9392 38.2335 17.923 38.2476 17.9095C38.2601 17.8955 38.2756 17.8844 38.2929 17.877C38.3101 17.8696 38.3288 17.8661 38.3476 17.8667C38.3868 17.8667 38.4243 17.8822 38.452 17.9099C38.4797 17.9376 38.4952 17.9751 38.4952 18.0143C38.4958 18.0331 38.4923 18.0518 38.4849 18.069C38.4775 18.0863 38.4664 18.1018 38.4524 18.1143C38.4386 18.128 38.4223 18.1388 38.4043 18.1461C38.3863 18.1535 38.367 18.1572 38.3476 18.1571ZM38.3476 17.8714C38.3289 17.8714 38.3104 17.8752 38.2932 17.8826C38.276 17.89 38.2605 17.9007 38.2476 17.9143C38.2224 17.9414 38.2088 17.9773 38.2095 18.0143C38.2097 18.0511 38.2236 18.0863 38.2479 18.114C38.2752 18.1391 38.3106 18.1533 38.3476 18.1533C38.3847 18.1533 38.4204 18.1394 38.4476 18.1143C38.4612 18.1014 38.4719 18.0859 38.4793 18.0687C38.4867 18.0515 38.4905 18.033 38.4905 18.0143C38.4893 17.9768 38.4739 17.9411 38.4473 17.9146C38.4208 17.888 38.3851 17.8726 38.3476 17.8714ZM38.3476 17.6571C37.9095 17.6571 37.7048 17.4619 37.7048 17.0429V16.7762C37.6972 16.6899 37.7077 16.603 37.7356 16.521C37.7635 16.4391 37.8081 16.3638 37.8667 16.3C38.0001 16.1902 38.1705 16.1357 38.3429 16.1476C38.7762 16.1476 38.9762 16.3429 38.9762 16.7619V17.0286C38.9891 17.1141 38.9817 17.2014 38.9547 17.2836C38.9277 17.3657 38.8817 17.4404 38.8206 17.5015C38.7594 17.5627 38.6848 17.6086 38.6026 17.6356C38.5205 17.6627 38.4331 17.67 38.3476 17.6571ZM38.3476 16.1714C38.1757 16.1567 38.0049 16.2097 37.8714 16.319C37.8127 16.3826 37.7683 16.4579 37.7412 16.5401C37.7141 16.6222 37.7049 16.7092 37.7143 16.7952V17.0619C37.7143 17.4762 37.9143 17.6667 38.3476 17.6667C38.5195 17.6809 38.6901 17.628 38.8238 17.519C38.8825 17.4555 38.927 17.3801 38.9541 17.298C38.9812 17.2159 38.9903 17.1288 38.981 17.0429V16.7762C38.9762 16.3619 38.7762 16.1905 38.3476 16.1905V16.1714ZM38.3476 17.4524C38.0429 17.4524 37.9238 17.3381 37.9238 17.0429V16.7762C37.9238 16.4809 38.0381 16.3667 38.3476 16.3667C38.6571 16.3667 38.7619 16.4809 38.7619 16.7762V17.0429C38.7619 17.3429 38.6524 17.4524 38.3476 17.4524ZM38.3476 16.3762C38.0429 16.3762 37.9286 16.4809 37.9286 16.7762V17.0429C37.9286 17.3333 38.0476 17.4429 38.3476 17.4429C38.6476 17.4429 38.7571 17.3381 38.7571 17.0429V16.7762C38.7571 16.4809 38.6476 16.3762 38.3476 16.3762ZM38.6238 16.0286C38.5988 16.0322 38.5732 16.0271 38.5515 16.0141C38.5298 16.0011 38.5133 15.981 38.5048 15.9571L38.4381 15.8476C38.4381 15.8048 38.3905 15.7857 38.3714 15.7857C38.3714 15.7857 38.3238 15.7857 38.3048 15.8476L38.2381 15.9571C38.2296 15.981 38.213 16.0011 38.1913 16.0141C38.1696 16.0271 38.1441 16.0322 38.119 16.0286H38.0905C38.0571 16.0286 38.0429 16.0286 38.0381 16.0286C38.0333 16.0286 38.0381 16 38.0381 15.9762L38.1476 15.8048C38.219 15.7 38.2571 15.6619 38.3571 15.6619C38.4571 15.6619 38.4905 15.6905 38.5619 15.8048L38.6714 15.9762C38.6714 16 38.7 16.019 38.6714 16.0286C38.6429 16.0381 38.6571 16.0286 38.6238 16.0286ZM38.3476 15.7809C38.3476 15.7809 38.3952 15.7809 38.419 15.8429L38.4857 15.9571C38.4942 15.9797 38.5102 15.9987 38.531 16.0108C38.5518 16.0229 38.5762 16.0275 38.6 16.0238C38.6333 16.0238 38.6476 16.0238 38.6524 16.0238C38.6571 16.0238 38.6524 16.0238 38.6524 15.9762L38.5714 15.7905C38.5048 15.6762 38.4619 15.6476 38.3714 15.6476C38.281 15.6476 38.2381 15.6809 38.1667 15.7905L38.0571 15.9619C38.0571 15.9619 38.0571 16 38.0571 16.0095C38.0571 16.019 38.0571 16.0095 38.1048 16.0095H38.0952C38.1189 16.0116 38.1425 16.0063 38.163 15.9944C38.1835 15.9825 38.1997 15.9644 38.2095 15.9429L38.2762 15.8286C38.3 15.8 38.3238 15.7809 38.3476 15.7809Z" fill="#009EDB"/>
<path d="M39.2571 16.7667C39.2571 16.3857 39.4618 16.1667 39.9047 16.1667C39.9904 16.1639 40.076 16.1768 40.1571 16.2048C40.2285 16.2048 40.2476 16.2476 40.2476 16.3143V16.3428C40.2476 16.4143 40.2476 16.4381 40.1571 16.4143C40.0781 16.3842 39.994 16.3696 39.9095 16.3714C39.5856 16.3714 39.4761 16.5 39.4761 16.7714V17.0524C39.4761 17.3428 39.6047 17.4476 39.9285 17.4476C40.0174 17.4504 40.106 17.4375 40.1904 17.4095C40.2571 17.3857 40.2761 17.4095 40.2761 17.4809V17.5095C40.2761 17.5714 40.2761 17.5952 40.1809 17.6143C40.0949 17.6422 40.0046 17.6551 39.9142 17.6524C39.4666 17.6524 39.2571 17.4619 39.2571 17.0524V16.7667Z" fill="#009EDB"/>
<path d="M39.9143 17.6572C39.7428 17.669 39.573 17.6163 39.4382 17.5095C39.3772 17.4474 39.331 17.3723 39.303 17.2899C39.275 17.2074 39.2658 17.1198 39.2762 17.0333V16.7476C39.2704 16.667 39.2814 16.586 39.3085 16.5098C39.3355 16.4335 39.378 16.3637 39.4334 16.3048C39.5646 16.1903 39.7357 16.1321 39.9096 16.1429C39.9967 16.1424 40.0834 16.1553 40.1667 16.181C40.2381 16.181 40.2524 16.2286 40.2524 16.2953V16.3238C40.2524 16.3667 40.2524 16.3905 40.2524 16.4C40.2414 16.4059 40.2292 16.4089 40.2167 16.4089C40.2043 16.4089 40.192 16.4059 40.181 16.4C40.1009 16.3747 40.0174 16.3618 39.9334 16.3619C39.6286 16.3619 39.5001 16.4762 39.5001 16.7572V17.0381C39.5001 17.3238 39.6239 17.4286 39.9524 17.4286C40.0398 17.4322 40.127 17.4192 40.2096 17.3905C40.2209 17.3856 40.233 17.3831 40.2453 17.3831C40.2576 17.3831 40.2697 17.3856 40.281 17.3905C40.281 17.3905 40.281 17.4238 40.281 17.4667V17.4953C40.281 17.5619 40.281 17.5857 40.1905 17.6048C40.1016 17.6358 40.0085 17.6535 39.9143 17.6572ZM39.9143 16.1714C39.4953 16.1714 39.2715 16.3762 39.2715 16.7667V17.0524C39.2715 17.4619 39.4762 17.6476 39.9239 17.6476C40.0139 17.6492 40.1037 17.638 40.1905 17.6143C40.262 17.6143 40.281 17.5714 40.281 17.5095V17.481C40.281 17.4429 40.281 17.4191 40.281 17.4095C40.281 17.4 40.2477 17.4095 40.2191 17.4095C40.1343 17.4356 40.0459 17.4484 39.9572 17.4476C39.6286 17.4476 39.481 17.3333 39.481 17.0476V16.7667C39.481 16.481 39.6096 16.3619 39.9191 16.3619C40.0051 16.361 40.0906 16.3755 40.1715 16.4048C40.2048 16.4048 40.2239 16.4048 40.2334 16.4048C40.2429 16.4048 40.2334 16.3714 40.2334 16.3333V16.3048C40.2334 16.2429 40.2334 16.2191 40.1477 16.1953C40.0674 16.1815 39.9855 16.1799 39.9048 16.1905L39.9143 16.1714Z" fill="#009EDB"/>
<path d="M41.2334 17.4667C41.2334 17.3952 41.2334 17.3762 41.3286 17.3905C41.4663 17.4307 41.609 17.4516 41.7524 17.4524C41.9763 17.4524 42.0667 17.4095 42.0667 17.2857C42.0667 17.1619 42.0191 17.1429 41.881 17.0762L41.5286 16.9095C41.3429 16.8191 41.2572 16.7333 41.2572 16.5333C41.2572 16.3333 41.4286 16.1905 41.7715 16.1905C41.8941 16.1898 42.0161 16.2074 42.1334 16.2429C42.2001 16.2429 42.2191 16.2857 42.2191 16.3524V16.381C42.2191 16.4524 42.2191 16.4667 42.1286 16.4476C42.0116 16.4109 41.8894 16.3932 41.7667 16.3952C41.5524 16.3952 41.4715 16.4381 41.4715 16.5571C41.4715 16.6762 41.5239 16.7 41.6239 16.7476L41.9953 16.9143C42.1905 17.0095 42.2858 17.0952 42.2858 17.3048C42.2858 17.5143 42.1096 17.6762 41.7382 17.6762C41.5999 17.6779 41.462 17.6602 41.3286 17.6238C41.2524 17.6 41.2334 17.5762 41.2334 17.5143V17.4667Z" fill="#009EDB"/>
<path d="M41.7382 17.6571C41.5981 17.6575 41.4586 17.6383 41.3239 17.6C41.2524 17.6 41.2334 17.5571 41.2334 17.4905C41.2334 17.4524 41.2334 17.4286 41.2334 17.419C41.2334 17.4095 41.2715 17.419 41.3096 17.419C41.4477 17.457 41.5902 17.4762 41.7334 17.4762C41.962 17.4762 42.0477 17.4333 42.0477 17.3143C42.0477 17.1952 42.0048 17.1762 41.862 17.1095L41.5048 16.9381C41.3286 16.8524 41.2334 16.7667 41.2334 16.5619C41.2334 16.3571 41.4001 16.1905 41.7524 16.1905C41.8755 16.1881 41.998 16.2075 42.1144 16.2476C42.1858 16.2476 42.2048 16.2905 42.2048 16.3571V16.3857C42.2136 16.4087 42.2136 16.4341 42.2048 16.4571C42.1804 16.4672 42.153 16.4672 42.1286 16.4571C42.0137 16.4178 41.8929 16.3985 41.7715 16.4C41.562 16.4 41.481 16.4476 41.481 16.5619C41.4833 16.6043 41.4987 16.645 41.5252 16.6783C41.5516 16.7116 41.5878 16.7358 41.6286 16.7476L42.0001 16.919C42.1905 17.0048 42.2905 17.0952 42.2905 17.3095C42.2905 17.5238 42.1096 17.6571 41.7382 17.6571ZM41.262 17.3905H41.2334C41.2334 17.3905 41.2334 17.4238 41.2334 17.4571C41.2334 17.519 41.2334 17.5429 41.3239 17.5619C41.4571 17.5991 41.5951 17.6167 41.7334 17.6143C42.1096 17.6143 42.2763 17.5048 42.2763 17.2476C42.2763 16.9905 42.1763 16.9476 41.9905 16.8619L41.6191 16.6905C41.5761 16.6795 41.5377 16.6551 41.5095 16.6208C41.4813 16.5866 41.4646 16.5443 41.462 16.5C41.462 16.3809 41.5477 16.3333 41.762 16.3333C41.8849 16.3322 42.0072 16.3515 42.1239 16.3905C42.1572 16.3905 42.1763 16.3905 42.1905 16.3905C42.195 16.3799 42.1973 16.3686 42.1973 16.3571C42.1973 16.3457 42.195 16.3344 42.1905 16.3238V16.2952C42.1905 16.2286 42.1905 16.2143 42.1048 16.1905C41.988 16.1528 41.8656 16.1351 41.7429 16.1381C41.3953 16.1381 41.2334 16.2524 41.2334 16.5C41.2334 16.7476 41.3239 16.7857 41.5001 16.8714L41.8524 17.0429C41.9953 17.1095 42.0429 17.1619 42.0429 17.2524C42.0429 17.3429 41.9572 17.419 41.7239 17.419C41.5791 17.4188 41.4351 17.3996 41.2953 17.3619L41.262 17.3905Z" fill="#009EDB"/>
<path d="M42.562 17.0428V16.7762C42.562 16.3714 42.7763 16.1667 43.2001 16.1667C43.6239 16.1667 43.8334 16.3762 43.8334 16.7762V17.0428C43.8334 17.4524 43.6239 17.6524 43.2001 17.6524C42.7763 17.6524 42.562 17.4428 42.562 17.0428ZM43.6144 16.7762C43.6144 16.4952 43.5192 16.3714 43.2001 16.3714C42.8811 16.3714 42.7811 16.4952 42.7811 16.7762V17.0428C42.7811 17.3238 42.8858 17.4476 43.2001 17.4476C43.5144 17.4476 43.6144 17.3238 43.6144 17.0428V16.7762ZM42.9953 15.7857C43.0668 15.6809 43.1049 15.6428 43.2001 15.6428C43.2953 15.6428 43.3382 15.6714 43.4049 15.7857L43.5192 15.9571C43.5525 16.0095 43.5192 16.0238 43.4811 16.0238C43.4566 16.0278 43.4315 16.0234 43.4099 16.0113C43.3883 15.9992 43.3714 15.9801 43.362 15.9571L43.2953 15.8428C43.2477 15.7619 43.2001 15.7619 43.1572 15.8428L43.0906 15.9571C43.062 16.0143 43.0334 16.0238 42.9715 16.0238C42.9096 16.0238 42.9001 16.0238 42.9334 15.9571L42.9953 15.7857ZM43.7334 15.6143C43.7215 15.6362 43.7034 15.6542 43.6815 15.666C43.6595 15.6779 43.6345 15.6831 43.6096 15.6809H43.5811C43.5144 15.6809 43.5049 15.6809 43.5382 15.6095L43.6573 15.3762C43.6679 15.3469 43.6886 15.3223 43.7155 15.3066C43.7425 15.2909 43.7741 15.2852 43.8049 15.2905H43.8334C43.9096 15.2905 43.9239 15.2905 43.8811 15.3714L43.7334 15.6143Z" fill="#009EDB"/>
<path d="M43.2 17.6571C42.7667 17.6571 42.5619 17.4619 42.5619 17.0429V16.7762C42.5537 16.6903 42.5635 16.6036 42.5905 16.5216C42.6176 16.4396 42.6613 16.3642 42.719 16.3C42.8534 16.1919 43.0231 16.1376 43.1952 16.1476C43.6286 16.1476 43.8333 16.3429 43.8333 16.7619V17.0286C43.8381 17.4524 43.6238 17.6571 43.2 17.6571ZM43.2 16.1714C43.0282 16.1577 42.8577 16.2106 42.7238 16.3191C42.6651 16.3826 42.6207 16.4579 42.5935 16.5401C42.5664 16.6222 42.5573 16.7092 42.5667 16.7952V17.0619C42.5667 17.4762 42.7667 17.6667 43.2 17.6667C43.3719 17.6819 43.543 17.6289 43.6762 17.5191C43.7349 17.4555 43.7793 17.3802 43.8064 17.298C43.8335 17.2159 43.8427 17.1289 43.8333 17.0429V16.7762C43.8095 16.3619 43.6286 16.1905 43.2 16.1905V16.1714ZM43.2 17.4524C42.8952 17.4524 42.7762 17.3381 42.7762 17.0429V16.7762C42.7762 16.481 42.8905 16.3667 43.2 16.3667C43.5095 16.3667 43.619 16.481 43.619 16.7762V17.0429C43.619 17.3429 43.5047 17.4524 43.2 17.4524ZM43.2 16.3762C42.8952 16.3762 42.7857 16.481 42.7857 16.7762V17.0429C42.7857 17.3333 42.9 17.4429 43.2 17.4429C43.5 17.4429 43.6143 17.3381 43.6143 17.0429V16.7762C43.6143 16.481 43.5 16.3762 43.2 16.3762ZM43.4809 16.0286C43.4553 16.0325 43.429 16.0276 43.4065 16.0146C43.384 16.0016 43.3666 15.9814 43.3571 15.9571L43.2905 15.8476C43.2476 15.7667 43.2047 15.7667 43.1571 15.8476L43.0952 15.9571C43.0858 15.9814 43.0684 16.0016 43.0459 16.0146C43.0234 16.0276 42.9971 16.0325 42.9714 16.0286C42.9381 16.0286 42.919 16.0286 42.9143 16.0286C42.9095 16.0286 42.9143 16 42.9143 15.9762L43.0238 15.8048C43.0905 15.7 43.1333 15.6619 43.2286 15.6619C43.3238 15.6619 43.3667 15.6905 43.4381 15.8048L43.5476 15.9762C43.5476 16 43.5476 16.0191 43.5476 16.0286C43.5476 16.0381 43.5143 16.0286 43.4809 16.0286ZM43.2 15.781C43.2 15.781 43.2476 15.781 43.2714 15.8429L43.3381 15.9571C43.3481 15.9796 43.3651 15.9982 43.3866 16.0102C43.408 16.0222 43.4328 16.027 43.4571 16.0238C43.4857 16.0238 43.5047 16.0238 43.5095 16.0238C43.5143 16.0238 43.5095 16.0238 43.5095 15.9762L43.4 15.8048C43.3286 15.6905 43.2905 15.6619 43.1952 15.6619C43.1 15.6619 43.0619 15.6952 42.9952 15.8048L42.8857 15.9762C42.8857 15.9762 42.8857 16.0143 42.8857 16.0238C42.8857 16.0333 42.8857 16.0238 42.9381 16.0238C42.9624 16.0262 42.9868 16.0212 43.0081 16.0092C43.0294 15.9973 43.0465 15.9791 43.0571 15.9571L43.119 15.8429C43.1524 15.8 43.1762 15.781 43.2 15.781ZM43.6095 15.6857H43.5809C43.5428 15.6857 43.5238 15.6857 43.519 15.6857C43.5113 15.6658 43.5113 15.6437 43.519 15.6238L43.6428 15.3905C43.6461 15.3723 43.6532 15.3549 43.6636 15.3396C43.6739 15.3242 43.6874 15.3112 43.7031 15.3014C43.7188 15.2915 43.7363 15.285 43.7546 15.2823C43.773 15.2796 43.7917 15.2808 43.8095 15.2857H43.8381C43.8809 15.2857 43.9047 15.2857 43.9095 15.2857C43.9143 15.2857 43.9095 15.3191 43.9095 15.3571L43.7667 15.5952C43.7543 15.6257 43.7321 15.6511 43.7036 15.6675C43.6751 15.6838 43.642 15.6903 43.6095 15.6857ZM43.8047 15.2905C43.7747 15.2864 43.7442 15.2927 43.7183 15.3083C43.6923 15.3239 43.6724 15.3478 43.6619 15.3762L43.5381 15.6095C43.5381 15.6429 43.5381 15.6571 43.5381 15.6667C43.5381 15.6762 43.5381 15.6667 43.5952 15.6667H43.6238C43.649 15.6672 43.6738 15.6608 43.6957 15.6482C43.7175 15.6356 43.7354 15.6173 43.7476 15.5952L43.8905 15.3571C43.8905 15.3238 43.919 15.3048 43.8905 15.2952C43.8619 15.2857 43.8619 15.2952 43.8238 15.2952L43.8047 15.2905Z" fill="#009EDB"/>
<path d="M44.3572 17.5333C44.3572 17.6095 44.3572 17.6238 44.2668 17.6238H44.2334C44.162 17.6238 44.1382 17.6238 44.1382 17.5333V16.7095C44.1382 16.3476 44.3429 16.1667 44.7477 16.1667C45.1525 16.1667 45.3477 16.3571 45.3477 16.7095V17.5333C45.3477 17.6095 45.3477 17.6238 45.2572 17.6238H45.2382C45.1572 17.6238 45.1429 17.6238 45.1429 17.5333V16.7095C45.1429 16.4762 45.0525 16.3714 44.762 16.3714C44.4715 16.3714 44.3715 16.4809 44.3715 16.7095L44.3572 17.5333Z" fill="#009EDB"/>
<path d="M45.2381 17.6191C45.1571 17.6191 45.1381 17.619 45.1381 17.5238V16.7095C45.1381 16.4667 45.0381 16.3762 44.7619 16.3762C44.4857 16.3762 44.3762 16.4667 44.3762 16.7095V17.5333C44.3762 17.6095 44.3762 17.6286 44.281 17.6286H44.2476C44.1762 17.6286 44.1524 17.6286 44.1524 17.5333V16.7095C44.1524 16.3476 44.3571 16.1619 44.7619 16.1619C44.8468 16.1532 44.9325 16.1613 45.0143 16.1858C45.096 16.2103 45.1721 16.2508 45.2381 16.3048C45.2889 16.3585 45.3279 16.4223 45.3525 16.492C45.3771 16.5617 45.3868 16.6358 45.381 16.7095V17.5333C45.3524 17.619 45.3381 17.6191 45.2381 17.6191ZM44.7619 16.3667C45.0429 16.3667 45.1476 16.4619 45.1476 16.7095V17.5333C45.1476 17.6095 45.1476 17.6191 45.2381 17.6191C45.3143 17.6191 45.3286 17.619 45.3286 17.5333V16.7095C45.3346 16.6365 45.325 16.5631 45.3004 16.4941C45.2757 16.4251 45.2366 16.3622 45.1857 16.3095C45.0632 16.2204 44.9129 16.1782 44.7619 16.1905C44.5919 16.1712 44.421 16.2191 44.2857 16.3238C44.2327 16.3764 44.1917 16.4397 44.1654 16.5096C44.1391 16.5794 44.1281 16.6541 44.1333 16.7286V17.5524C44.1333 17.6286 44.1333 17.6381 44.2238 17.6381H44.2857C44.3619 17.6381 44.3762 17.6381 44.3762 17.5524V16.7095C44.3571 16.4619 44.4667 16.3667 44.7619 16.3667Z" fill="#009EDB"/>
<path d="M46.8523 16.7048C46.8523 17.0381 46.657 17.2095 46.2523 17.2095C46.151 17.1984 46.0488 17.1984 45.9475 17.2095C45.9265 17.213 45.9075 17.2242 45.8943 17.241C45.8811 17.2577 45.8746 17.2788 45.8761 17.3C45.8761 17.3381 45.8761 17.3667 45.9523 17.381C46.0521 17.3887 46.1524 17.3887 46.2523 17.381C46.4161 17.3696 46.5802 17.4007 46.7285 17.4714C46.7779 17.5054 46.8173 17.5521 46.8425 17.6066C46.8676 17.661 46.8776 17.7213 46.8713 17.781C46.8778 17.8455 46.8682 17.9106 46.8433 17.9705C46.8183 18.0303 46.7789 18.083 46.7285 18.1238C46.5822 18.201 46.4172 18.2356 46.2523 18.2238C46.0874 18.2341 45.9229 18.1996 45.7761 18.1238C45.7293 18.0887 45.6921 18.0424 45.668 17.9892C45.6438 17.9359 45.6335 17.8774 45.638 17.8191C45.6347 17.7571 45.6485 17.6955 45.6779 17.6409C45.7073 17.5863 45.7512 17.5409 45.8047 17.5095C45.7672 17.4945 45.7355 17.4679 45.7141 17.4337C45.6927 17.3995 45.6827 17.3593 45.6856 17.3191C45.6856 17.1905 45.7618 17.1143 45.9189 17.0905C45.8387 17.0562 45.7717 16.9968 45.7279 16.9213C45.6841 16.8458 45.666 16.7581 45.6761 16.6714V16.6667C45.6761 16.3524 45.8999 16.1905 46.2761 16.1905C46.379 16.1883 46.4812 16.2077 46.5761 16.2476L46.7427 16.1C46.7904 16.0572 46.8142 16.0572 46.8618 16.1C46.9094 16.1429 46.9094 16.1667 46.8618 16.2143L46.7332 16.3476C46.775 16.3902 46.8076 16.4409 46.8289 16.4966C46.8502 16.5523 46.8598 16.6119 46.857 16.6714L46.8523 16.7048ZM45.9713 17.5905C45.9277 17.6125 45.8915 17.6468 45.867 17.6891C45.8424 17.7313 45.8307 17.7798 45.8332 17.8286C45.8332 18.0191 45.9427 18.0667 46.2523 18.0667C46.5618 18.0667 46.6713 18.0191 46.6713 17.8238C46.6713 17.6286 46.5666 17.6095 46.2523 17.6095C46.1583 17.6101 46.0644 17.6038 45.9713 17.5905ZM46.6332 16.6667C46.6332 16.4619 46.5047 16.3619 46.2523 16.3619C45.9999 16.3619 45.8666 16.4619 45.8666 16.6667V16.7048C45.8666 16.9095 45.9618 17.0143 46.2523 17.0143C46.5427 17.0143 46.6332 16.9095 46.6332 16.7048V16.6667Z" fill="#009EDB"/>
<path d="M46.2523 18.2571C46.0878 18.2696 45.9231 18.2367 45.7761 18.1619C45.7295 18.1255 45.6926 18.0783 45.6686 18.0243C45.6445 17.9703 45.634 17.9113 45.638 17.8524C45.6343 17.7915 45.6469 17.7307 45.6745 17.6763C45.7021 17.6218 45.7438 17.5758 45.7951 17.5428C45.759 17.5265 45.7287 17.4995 45.7082 17.4654C45.6878 17.4314 45.6783 17.392 45.6808 17.3524C45.6808 17.2254 45.757 17.1492 45.9094 17.1238C45.8305 17.0881 45.765 17.0283 45.7222 16.953C45.6794 16.8777 45.6616 16.7908 45.6713 16.7048V16.6667C45.6693 16.5966 45.6828 16.5271 45.7108 16.4629C45.7388 16.3987 45.7806 16.3414 45.8332 16.2952C45.9611 16.2012 46.1175 16.1541 46.2761 16.1619C46.379 16.1597 46.4812 16.1791 46.5761 16.219L46.7427 16.0762C46.7904 16.0286 46.8142 16.0286 46.8618 16.0762C46.8904 16.1 46.8999 16.1143 46.8999 16.1333C46.8999 16.1524 46.8999 16.1667 46.8618 16.1952L46.7332 16.3238C46.7766 16.3654 46.8106 16.4158 46.8327 16.4717C46.8549 16.5276 46.8648 16.5876 46.8618 16.6476V16.6857C46.8618 17.019 46.657 17.1905 46.257 17.1905C46.1558 17.1789 46.0535 17.1789 45.9523 17.1905C45.933 17.1949 45.9158 17.2058 45.9036 17.2214C45.8915 17.237 45.8851 17.2564 45.8856 17.2762C45.8856 17.3143 45.9094 17.3381 45.957 17.3524C46.0568 17.361 46.1572 17.361 46.257 17.3524C46.4288 17.3367 46.6016 17.368 46.757 17.4428C46.8064 17.4766 46.8454 17.5235 46.8698 17.5781C46.8942 17.6327 46.9029 17.6931 46.8951 17.7524C46.9034 17.8177 46.8946 17.8841 46.8695 17.945C46.8445 18.006 46.8041 18.0593 46.7523 18.1C46.6036 18.1981 46.4303 18.2525 46.2523 18.2571ZM46.2523 16.1714C45.8808 16.1714 45.657 16.3571 45.657 16.6476V16.6857C45.6473 16.7718 45.6651 16.8587 45.7079 16.934C45.7507 17.0093 45.8162 17.069 45.8951 17.1048C45.738 17.1286 45.6618 17.2 45.6618 17.3286C45.6609 17.3685 45.6717 17.4077 45.6929 17.4416C45.714 17.4754 45.7446 17.5023 45.7808 17.519C45.7286 17.5502 45.6859 17.5951 45.6574 17.6488C45.6288 17.7026 45.6155 17.7631 45.6189 17.8238C45.6152 17.8816 45.6253 17.9394 45.6485 17.9924C45.6717 18.0454 45.7073 18.0921 45.7523 18.1286C45.9001 18.2009 46.0642 18.2337 46.2285 18.2238C46.3929 18.236 46.5576 18.2031 46.7046 18.1286C46.7551 18.0878 46.7945 18.0351 46.8194 17.9752C46.8444 17.9153 46.854 17.8502 46.8475 17.7857C46.8544 17.7271 46.8452 17.6678 46.8209 17.6141C46.7965 17.5604 46.758 17.5144 46.7094 17.4809C46.5611 17.4102 46.3971 17.3791 46.2332 17.3905C46.1319 17.4013 46.0297 17.4013 45.9285 17.3905C45.9091 17.3872 45.8914 17.3774 45.8784 17.3626C45.8654 17.3479 45.8578 17.3292 45.857 17.3095C45.8556 17.2883 45.8621 17.2672 45.8753 17.2505C45.8885 17.2337 45.9074 17.2225 45.9285 17.219C46.0297 17.2071 46.132 17.2071 46.2332 17.219C46.4016 17.2359 46.5705 17.192 46.7094 17.0952C46.7601 17.0472 46.7996 16.9886 46.8251 16.9236C46.8506 16.8586 46.8615 16.7887 46.857 16.719V16.6667C46.8603 16.6073 46.8505 16.5479 46.8283 16.4928C46.8061 16.4377 46.772 16.3881 46.7285 16.3476L46.857 16.2143C46.8856 16.2143 46.8951 16.1714 46.8951 16.1571C46.8936 16.1466 46.8898 16.1364 46.884 16.1274C46.8783 16.1184 46.8707 16.1107 46.8618 16.1048H46.838C46.7951 16.0619 46.7713 16.0619 46.7237 16.1048L46.557 16.2524C46.461 16.2102 46.3571 16.1891 46.2523 16.1905V16.1714ZM46.2523 18.0762C45.9285 18.0762 45.8332 18.019 45.8332 17.8333C45.828 17.7841 45.8386 17.7345 45.8634 17.6917C45.8882 17.6489 45.926 17.6151 45.9713 17.5952C46.0649 17.6011 46.1587 17.6011 46.2523 17.5952C46.5665 17.5952 46.6761 17.6286 46.6761 17.8143C46.6761 18 46.5713 18.0952 46.2523 18.0952V18.0762ZM45.9713 17.6C45.9282 17.6209 45.8924 17.6544 45.8686 17.696C45.8448 17.7377 45.8341 17.7855 45.838 17.8333C45.838 18.0143 45.9332 18.0714 46.2523 18.0714C46.5713 18.0714 46.6665 18.0143 46.6665 17.8286C46.6665 17.6428 46.5665 17.6143 46.2523 17.6143C46.1588 17.6218 46.065 17.6234 45.9713 17.619V17.6ZM46.2523 17.0238C45.9761 17.0238 45.8665 16.9333 45.8665 16.7095V16.6667C45.8665 16.4571 45.9904 16.3571 46.2523 16.3571C46.5142 16.3571 46.638 16.4619 46.638 16.6667V16.7048C46.638 16.9286 46.5285 17.019 46.2523 17.019V17.0238ZM46.2523 16.3667C45.9951 16.3667 45.8713 16.4667 45.8713 16.6714V16.7095C45.8713 16.9286 45.9808 17.019 46.2523 17.019C46.5237 17.019 46.6332 16.9286 46.6332 16.7095V16.6667C46.6332 16.4667 46.5046 16.3619 46.2523 16.3619V16.3667Z" fill="#009EDB"/>
<path d="M49.4143 15.9524C49.4143 16.0143 49.4143 16.0333 49.3334 16.0333H49.1619V17.0476C49.1619 17.4524 48.9476 17.6524 48.5238 17.6524C48.1 17.6524 47.8905 17.4524 47.8905 17.0476V16.7762C47.8819 16.6959 47.8916 16.6147 47.9189 16.5388C47.9462 16.4628 47.9905 16.394 48.0482 16.3376C48.106 16.2812 48.1758 16.2387 48.2524 16.2132C48.3291 16.1877 48.4105 16.1799 48.4905 16.1905C48.5816 16.1755 48.6752 16.1873 48.7597 16.2245C48.8443 16.2617 48.9162 16.3227 48.9667 16.4V16.0571H48.5715C48.5048 16.0571 48.4905 16.0571 48.4905 15.9762C48.4905 15.9143 48.4905 15.8952 48.5715 15.8952H48.9667V15.7143C48.9667 15.6333 48.9667 15.619 49.0572 15.619H49.0476C49.1191 15.619 49.1429 15.619 49.1429 15.7143V15.8714H49.3143C49.3762 15.8714 49.3953 15.8714 49.3953 15.9524H49.4143ZM48.0953 17.0429C48.0953 17.3238 48.1905 17.4476 48.5096 17.4476C48.8286 17.4476 48.9286 17.3238 48.9286 17.0429V16.7762C48.9286 16.4952 48.8286 16.3714 48.5096 16.3714C48.1905 16.3714 48.0953 16.4952 48.0953 16.7762V17.0429Z" fill="#009EDB"/>
<path d="M48.5239 17.6571C48.3514 17.6695 48.1809 17.615 48.0477 17.5048C47.989 17.4412 47.9445 17.3659 47.9174 17.2837C47.8903 17.2016 47.8811 17.1146 47.8905 17.0286V16.7571C47.8817 16.6716 47.8907 16.5851 47.9169 16.5031C47.9432 16.4212 47.986 16.3455 48.0429 16.281C48.1063 16.222 48.1816 16.1774 48.2638 16.1503C48.346 16.1231 48.4331 16.1141 48.5191 16.1238C48.6053 16.1139 48.6925 16.1278 48.7714 16.1639C48.8503 16.2 48.9178 16.2569 48.9667 16.3286V16H48.5715C48.5048 16 48.4858 16 48.4858 15.9143C48.4858 15.8476 48.4858 15.8286 48.5715 15.8286H48.962V15.7143C48.962 15.6333 48.962 15.6143 49.0572 15.6143H49.0477C49.1191 15.6143 49.1429 15.6143 49.1429 15.7143V15.8667H49.3143C49.3762 15.8667 49.4001 15.8667 49.4001 15.9524C49.4001 16.0143 49.4001 16.0381 49.3143 16.0381H49.1429V17.0476C49.162 17.4524 48.9477 17.6571 48.5239 17.6571ZM48.4905 16.1905C48.4098 16.1839 48.3286 16.1935 48.2518 16.2189C48.1749 16.2442 48.1038 16.2848 48.0429 16.3381C47.9876 16.4035 47.946 16.4794 47.9207 16.5612C47.8953 16.643 47.8867 16.7291 47.8953 16.8143V17.0857C47.8843 17.1714 47.8923 17.2585 47.9186 17.3407C47.9449 17.423 47.989 17.4985 48.0477 17.5619C48.1809 17.6718 48.3519 17.7248 48.5239 17.7095C48.6957 17.7233 48.8662 17.6704 49.0001 17.5619C49.059 17.4986 49.1036 17.4232 49.1308 17.341C49.1579 17.2588 49.1669 17.1717 49.1572 17.0857V16.0286H49.3334C49.3905 16.0286 49.4143 16.0286 49.4143 15.9524C49.4143 15.8952 49.4143 15.8762 49.3334 15.8762H49.1572V15.7143C49.1572 15.6333 49.1572 15.6238 49.0667 15.6238H49.0477C48.9715 15.6238 48.962 15.6238 48.962 15.7143V15.8762H48.5715C48.5048 15.8762 48.4953 15.8762 48.4953 15.9524C48.4953 16.0095 48.4953 16.0286 48.5715 16.0286H48.9715V16.3905C48.9194 16.314 48.8462 16.2544 48.7608 16.2189C48.6754 16.1834 48.5815 16.1735 48.4905 16.1905ZM48.5239 17.4714C48.2191 17.4714 48.1048 17.3619 48.1048 17.0619V16.7952C48.1048 16.5 48.2239 16.3857 48.5239 16.3857C48.8239 16.3857 48.9477 16.5 48.9477 16.7952V17.0619C48.9477 17.3381 48.8286 17.4524 48.5239 17.4524V17.4714ZM48.5239 16.3952C48.2286 16.3952 48.1096 16.5048 48.1096 16.7952V17.0619C48.1096 17.3571 48.2239 17.4619 48.5239 17.4619C48.8239 17.4619 48.9382 17.3571 48.9382 17.0619V16.7952C48.9382 16.481 48.8286 16.3762 48.5239 16.3762V16.3952Z" fill="#009EDB"/>
<path d="M49.4524 17.0428V16.7762C49.4524 16.3714 49.6619 16.1667 50.0905 16.1667C50.4095 16.1667 50.5952 16.2762 50.6762 16.4809C50.7191 16.4809 50.7619 16.4048 50.7619 16.2524C50.7619 16.2095 50.7619 16.1952 50.8286 16.1952H50.8762C50.9286 16.1952 50.9381 16.1952 50.9381 16.2524C50.9381 16.4857 50.8476 16.6 50.7095 16.6381C50.7146 16.684 50.7146 16.7303 50.7095 16.7762V17.0428C50.7095 17.4524 50.5 17.6524 50.081 17.6524C49.6619 17.6524 49.4524 17.4428 49.4524 17.0428ZM50.5048 16.7762C50.5048 16.4952 50.4048 16.3714 50.0905 16.3714C49.7762 16.3714 49.6667 16.4952 49.6667 16.7762V17.0428C49.6667 17.3238 49.7762 17.4476 50.0905 17.4476C50.4048 17.4476 50.5048 17.3238 50.5048 17.0428V16.7762Z" fill="#009EDB"/>
<path d="M50.0905 17.6571C49.6524 17.6571 49.4477 17.4619 49.4477 17.0428V16.7762C49.4401 16.6899 49.4506 16.603 49.4785 16.521C49.5064 16.4391 49.551 16.3638 49.6096 16.3C49.743 16.1902 49.9134 16.1357 50.0858 16.1476C50.4001 16.1476 50.562 16.2476 50.6715 16.4619C50.7286 16.4381 50.7524 16.3619 50.7524 16.2381C50.7524 16.1905 50.7524 16.1762 50.8239 16.1762H50.8715C50.9239 16.1762 50.9382 16.1762 50.9382 16.2381C50.9382 16.4476 50.862 16.5809 50.7096 16.6286C50.7121 16.673 50.7121 16.7175 50.7096 16.7619V17.0286C50.7221 17.1132 50.7149 17.1995 50.6883 17.2808C50.6618 17.3622 50.6168 17.4362 50.5567 17.4971C50.4967 17.5581 50.4234 17.6043 50.3425 17.632C50.2616 17.6598 50.1753 17.6684 50.0905 17.6571ZM50.0905 16.1714C49.9186 16.1567 49.7478 16.2096 49.6144 16.319C49.5556 16.3826 49.5112 16.4579 49.4841 16.5401C49.457 16.6222 49.4478 16.7092 49.4572 16.7952V17.0619C49.4572 17.4762 49.6572 17.6667 50.0905 17.6667C50.2624 17.6809 50.4331 17.628 50.5667 17.519C50.6255 17.4555 50.6699 17.3801 50.697 17.298C50.7241 17.2158 50.7333 17.1288 50.7239 17.0428V16.7762C50.7266 16.7302 50.7266 16.6841 50.7239 16.6381C50.8763 16.5905 50.9524 16.4619 50.9524 16.2524C50.9524 16.2095 50.9524 16.2 50.8905 16.2H50.8429C50.7953 16.2 50.781 16.2 50.781 16.2524C50.781 16.3809 50.7524 16.4571 50.6905 16.4857C50.5858 16.2714 50.4048 16.1905 50.0905 16.1905V16.1714ZM50.0905 17.4524C49.7858 17.4524 49.6667 17.3381 49.6667 17.0428V16.7762C49.6667 16.4809 49.781 16.3667 50.0905 16.3667C50.4001 16.3667 50.5048 16.4809 50.5048 16.7762V17.0428C50.5048 17.3428 50.3953 17.4524 50.0905 17.4524ZM50.0905 16.3762C49.7858 16.3762 49.6715 16.4809 49.6715 16.7762V17.0428C49.6715 17.3333 49.7905 17.4428 50.0905 17.4428C50.3905 17.4428 50.5001 17.3381 50.5001 17.0428V16.7762C50.5001 16.4809 50.3905 16.3762 50.0905 16.3762Z" fill="#009EDB"/>
<path d="M51.2476 17.5333C51.2476 17.6095 51.2476 17.6238 51.1524 17.6238H51.119C51.0476 17.6238 51.0286 17.6238 51.0286 17.5333V16.7095C51.0286 16.3476 51.2333 16.1667 51.6333 16.1667C52.0333 16.1667 52.2381 16.3571 52.2381 16.7095V17.5333C52.2381 17.6095 52.2381 17.6238 52.1428 17.6238H52.1095C52.0286 17.6238 52.0143 17.6238 52.0143 17.5333V16.7095C52.0143 16.4762 51.9286 16.3714 51.6333 16.3714C51.3381 16.3714 51.2476 16.4809 51.2476 16.7095V17.5333Z" fill="#009EDB"/>
<path d="M52.1429 17.6191H52.1096C52.0286 17.6191 52.0143 17.619 52.0143 17.5238V16.7095C52.0143 16.4667 51.9096 16.3762 51.6334 16.3762C51.3572 16.3762 51.2477 16.4667 51.2477 16.7095V17.5333C51.2477 17.6095 51.2477 17.6286 51.1524 17.6286H51.1191C51.0477 17.6286 51.0239 17.6286 51.0239 17.5333V16.7095C51.0239 16.3476 51.2286 16.1619 51.6334 16.1619C51.7182 16.1532 51.804 16.1613 51.8857 16.1858C51.9674 16.2103 52.0435 16.2508 52.1096 16.3048C52.1611 16.358 52.2006 16.4217 52.2252 16.4915C52.2499 16.5614 52.2592 16.6358 52.2524 16.7095V17.5333C52.2381 17.619 52.2238 17.6191 52.1429 17.6191ZM51.6334 16.3571C51.9143 16.3571 52.0191 16.4524 52.0191 16.7V17.5238C52.0191 17.6 52.0191 17.6095 52.1096 17.6095H52.1429C52.2191 17.6095 52.2334 17.6095 52.2334 17.5238V16.7095C52.2392 16.6369 52.2299 16.5639 52.2061 16.4951C52.1823 16.4263 52.1446 16.3631 52.0953 16.3095C52.0289 16.2564 51.9526 16.2168 51.8709 16.1931C51.7892 16.1694 51.7036 16.162 51.6191 16.1714C51.4491 16.1522 51.2782 16.2 51.1429 16.3048C51.0899 16.3573 51.0488 16.4207 51.0225 16.4905C50.9962 16.5604 50.9853 16.6351 50.9905 16.7095V17.5333C50.9905 17.6095 50.9905 17.6191 51.081 17.6191H51.1143C51.1905 17.6191 51.2048 17.619 51.2048 17.5333V16.7095C51.2429 16.4619 51.3524 16.3667 51.6334 16.3667V16.3571Z" fill="#009EDB"/>
<path d="M54.5142 16.7048C54.5142 17.0381 54.3189 17.2095 53.9189 17.2095C53.8161 17.1983 53.7123 17.1983 53.6094 17.2095C53.5884 17.213 53.5694 17.2242 53.5562 17.241C53.543 17.2577 53.5365 17.2788 53.538 17.3C53.538 17.3381 53.538 17.3667 53.6142 17.381C53.7156 17.3888 53.8175 17.3888 53.9189 17.381C54.0828 17.3696 54.2469 17.4007 54.3951 17.4714C54.4433 17.5063 54.4815 17.5533 54.5058 17.6076C54.53 17.662 54.5395 17.7218 54.5332 17.781C54.5397 17.8455 54.5301 17.9106 54.5052 17.9705C54.4802 18.0303 54.4408 18.083 54.3904 18.1238C54.2443 18.2014 54.0792 18.2361 53.9142 18.2238C53.7398 18.239 53.5648 18.2043 53.4094 18.1238C53.3641 18.0877 53.3283 18.041 53.3051 17.9879C53.2819 17.9348 53.2719 17.8769 53.2761 17.8191C53.2723 17.7576 53.2854 17.6963 53.314 17.6418C53.3425 17.5872 53.3854 17.5415 53.438 17.5095C53.4005 17.4945 53.3688 17.4679 53.3474 17.4337C53.326 17.3995 53.316 17.3593 53.3189 17.3191C53.3189 17.1905 53.3951 17.1143 53.5523 17.0905C53.472 17.0562 53.405 16.9968 53.3612 16.9213C53.3175 16.8458 53.2993 16.7581 53.3094 16.6714V16.6667C53.3094 16.3524 53.5332 16.1905 53.9142 16.1905C54.0155 16.1887 54.1161 16.2081 54.2094 16.2476L54.3761 16.1C54.4237 16.0572 54.4475 16.0572 54.4951 16.1C54.5427 16.1429 54.5427 16.1667 54.4951 16.2143L54.3665 16.3476C54.4084 16.3902 54.4409 16.4409 54.4622 16.4966C54.4836 16.5523 54.4931 16.6119 54.4904 16.6714L54.5142 16.7048ZM53.6332 17.5905C53.5896 17.6125 53.5534 17.6468 53.5289 17.6891C53.5043 17.7313 53.4926 17.7798 53.4951 17.8286C53.4951 18.0191 53.6046 18.0667 53.9189 18.0667C54.2332 18.0667 54.3332 18.0191 54.3332 17.8238C54.3332 17.6286 54.2285 17.6095 53.9189 17.6095C53.8234 17.6104 53.7278 17.604 53.6332 17.5905ZM54.2856 16.6667C54.2856 16.4619 54.1618 16.3619 53.9094 16.3619C53.657 16.3619 53.5237 16.4619 53.5237 16.6667V16.7048C53.5237 16.9095 53.6142 17.0143 53.9094 17.0143C54.2046 17.0143 54.2856 16.9095 54.2856 16.7048V16.6667Z" fill="#009EDB"/>
<path d="M53.9191 18.2571C53.7452 18.274 53.5701 18.241 53.4143 18.1619C53.3678 18.1255 53.3309 18.0783 53.3068 18.0243C53.2827 17.9703 53.2722 17.9113 53.2762 17.8524C53.2725 17.7909 53.2856 17.7296 53.3141 17.6751C53.3426 17.6205 53.3855 17.5748 53.4381 17.5428C53.4007 17.5278 53.3689 17.5013 53.3475 17.467C53.3261 17.4328 53.3162 17.3926 53.3191 17.3524C53.3191 17.2254 53.3953 17.1492 53.5476 17.1238C53.4688 17.0881 53.4032 17.0283 53.3604 16.953C53.3176 16.8777 53.2998 16.7908 53.3096 16.7048V16.6667C53.3076 16.5967 53.321 16.5271 53.349 16.4629C53.377 16.3987 53.4188 16.3414 53.4715 16.2952C53.6008 16.2005 53.759 16.1534 53.9191 16.1619C54.0204 16.1601 54.121 16.1795 54.2143 16.219L54.381 16.0762C54.4286 16.0286 54.4524 16.0286 54.5 16.0762C54.5286 16.1 54.5381 16.1143 54.5381 16.1333C54.5381 16.1524 54.5381 16.1667 54.5 16.1952L54.3762 16.3238C54.418 16.3663 54.4506 16.4171 54.4719 16.4728C54.4932 16.5285 54.5028 16.588 54.5 16.6476V16.6857C54.5 17.019 54.2953 17.1905 53.9 17.1905C53.7972 17.1787 53.6933 17.1787 53.5905 17.1905C53.5712 17.1949 53.554 17.2058 53.5419 17.2214C53.5297 17.237 53.5233 17.2564 53.5238 17.2762C53.5238 17.3143 53.5238 17.3381 53.5953 17.3524C53.6967 17.3611 53.7986 17.3611 53.9 17.3524C54.0639 17.341 54.228 17.3721 54.3762 17.4428C54.4261 17.4764 54.4657 17.5231 54.4909 17.5776C54.5161 17.6322 54.5259 17.6926 54.5191 17.7524C54.5263 17.8181 54.5166 17.8846 54.4907 17.9455C54.4649 18.0064 54.4238 18.0596 54.3715 18.1C54.2365 18.19 54.0808 18.2441 53.9191 18.2571ZM53.9191 16.1714C53.5429 16.1714 53.3191 16.3571 53.3191 16.6476V16.6857C53.3094 16.7718 53.3272 16.8587 53.37 16.934C53.4127 17.0093 53.4783 17.069 53.5572 17.1048C53.4 17.1286 53.3286 17.2 53.3286 17.3286C53.3267 17.3681 53.3365 17.4072 53.3569 17.4411C53.3772 17.475 53.4071 17.5021 53.4429 17.519C53.3907 17.5502 53.348 17.5951 53.3194 17.6488C53.2909 17.7026 53.2776 17.7631 53.281 17.8238C53.2769 17.8821 53.2874 17.9404 53.3116 17.9936C53.3357 18.0468 53.3726 18.0932 53.4191 18.1286C53.737 18.2557 54.0916 18.2557 54.4096 18.1286C54.4594 18.0875 54.4982 18.0347 54.5223 17.9748C54.5465 17.9148 54.5552 17.8498 54.5477 17.7857C54.5546 17.7271 54.5453 17.6678 54.521 17.6141C54.4967 17.5604 54.4581 17.5144 54.4096 17.4809C54.2619 17.4085 54.0973 17.3772 53.9334 17.3905C53.8321 17.4018 53.7299 17.4018 53.6286 17.3905C53.5762 17.3905 53.5524 17.3476 53.5524 17.3095C53.5509 17.2883 53.5574 17.2672 53.5706 17.2505C53.5839 17.2337 53.6028 17.2225 53.6238 17.219C53.7267 17.207 53.8305 17.207 53.9334 17.219C54.0923 17.2295 54.25 17.1859 54.381 17.0952C54.4317 17.0472 54.4712 16.9886 54.4967 16.9236C54.5222 16.8586 54.5331 16.7887 54.5286 16.719V16.6667C54.5319 16.6073 54.5221 16.5479 54.4999 16.4928C54.4777 16.4377 54.4436 16.3881 54.4 16.3476L54.5334 16.2143C54.5513 16.2001 54.5632 16.1797 54.5667 16.1571C54.5651 16.1466 54.5613 16.1364 54.5556 16.1274C54.5499 16.1184 54.5423 16.1107 54.5334 16.1048C54.4857 16.0571 54.4667 16.0619 54.4143 16.1048L54.2476 16.2524C54.1445 16.2064 54.0319 16.1852 53.9191 16.1905V16.1714ZM53.9191 18.0762C53.5905 18.0762 53.4953 18.019 53.4953 17.8333C53.4901 17.7841 53.5006 17.7345 53.5255 17.6917C53.5503 17.6489 53.5881 17.6151 53.6334 17.5952C53.7285 17.6013 53.8239 17.6013 53.9191 17.5952C54.2286 17.5952 54.3381 17.6286 54.3381 17.8143C54.3381 18 54.1953 18.0952 53.9191 18.0952V18.0762ZM53.6334 17.6C53.5902 17.6209 53.5544 17.6544 53.5306 17.696C53.5068 17.7377 53.4962 17.7855 53.5 17.8333C53.5 18.0143 53.5953 18.0714 53.9191 18.0714C54.2429 18.0714 54.3286 18.0143 54.3286 17.8286C54.3286 17.6428 54.2286 17.6143 53.9191 17.6143C53.824 17.6219 53.7286 17.6235 53.6334 17.619V17.6ZM53.9191 17.0238C53.6429 17.0238 53.5286 16.9333 53.5286 16.7095V16.6667C53.5286 16.4571 53.6572 16.3571 53.9191 16.3571C54.181 16.3571 54.3 16.4619 54.3 16.6667V16.7048C54.2857 16.9286 54.1905 17.019 53.9191 17.019V17.0238ZM53.9191 16.3667C53.6572 16.3667 53.5334 16.4667 53.5334 16.6714V16.7095C53.5334 16.9286 53.6429 17.019 53.9191 17.019C54.1953 17.019 54.2953 16.9286 54.2953 16.7095V16.6667C54.2857 16.4667 54.1667 16.3619 53.9191 16.3619V16.3667Z" fill="#009EDB"/>
<path d="M55.0953 15.7476C55.0959 15.7662 55.0928 15.7846 55.0862 15.8019C55.0795 15.8192 55.0695 15.835 55.0566 15.8484C55.0437 15.8617 55.0282 15.8723 55.0112 15.8795C54.9941 15.8868 54.9757 15.8905 54.9572 15.8905C54.938 15.8911 54.9189 15.8879 54.9011 15.881C54.8832 15.8741 54.8669 15.8637 54.8531 15.8504C54.8393 15.837 54.8284 15.8211 54.8209 15.8034C54.8134 15.7858 54.8096 15.7668 54.8096 15.7476C54.8108 15.7093 54.8269 15.673 54.8545 15.6463C54.882 15.6196 54.9189 15.6047 54.9572 15.6048C54.9942 15.606 55.0294 15.6216 55.0551 15.6483C55.0809 15.6749 55.0953 15.7105 55.0953 15.7476ZM54.8477 16.2857C54.8477 16.2143 54.8477 16.1952 54.9381 16.1952H54.9715C55.0429 16.1952 55.062 16.1952 55.062 16.2857V17.5333C55.062 17.6095 55.062 17.6238 54.9715 17.6238H54.9381C54.8572 17.6238 54.8477 17.6238 54.8477 17.5333V16.2857Z" fill="#009EDB"/>
<path d="M54.9714 17.6191H54.938C54.8571 17.6191 54.8428 17.6191 54.8428 17.5238V16.2857C54.8428 16.2143 54.8428 16.1905 54.938 16.1905H54.9714C55.0428 16.1905 55.0666 16.1905 55.0666 16.2857V17.5333C55.0666 17.6191 55.0428 17.6191 54.9714 17.6191ZM54.938 16.1905C54.8618 16.1905 54.8475 16.1905 54.8475 16.2762V17.5238C54.8475 17.6 54.8475 17.6095 54.938 17.6095H54.9714C55.038 17.6095 55.0571 17.6095 55.0571 17.5238V16.2857C55.0571 16.2191 55.0571 16.2 54.9714 16.2L54.938 16.1905ZM54.938 15.881C54.9001 15.881 54.8638 15.8659 54.837 15.8391C54.8102 15.8123 54.7952 15.776 54.7952 15.7381C54.7952 15.7002 54.8102 15.6639 54.837 15.6371C54.8638 15.6103 54.9001 15.5952 54.938 15.5952C54.9759 15.5952 55.0122 15.6103 55.039 15.6371C55.0658 15.6639 55.0809 15.7002 55.0809 15.7381C55.0809 15.776 55.0658 15.8123 55.039 15.8391C55.0122 15.8659 54.9759 15.881 54.938 15.881ZM54.938 15.6C54.9199 15.6 54.9019 15.6036 54.8852 15.6105C54.8684 15.6175 54.8532 15.6276 54.8404 15.6405C54.8276 15.6533 54.8174 15.6685 54.8104 15.6853C54.8035 15.702 54.7999 15.72 54.7999 15.7381C54.7999 15.7562 54.8035 15.7742 54.8104 15.7909C54.8174 15.8077 54.8276 15.8229 54.8404 15.8358C54.8532 15.8486 54.8684 15.8587 54.8852 15.8657C54.9019 15.8726 54.9199 15.8762 54.938 15.8762C54.9746 15.8762 55.0098 15.8616 55.0357 15.8358C55.0616 15.8099 55.0761 15.7747 55.0761 15.7381C55.0761 15.7015 55.0616 15.6664 55.0357 15.6405C55.0098 15.6146 54.9746 15.6 54.938 15.6Z" fill="#009EDB"/>
<path d="M56.5238 17.1952C56.5238 17.5191 56.3381 17.6714 55.9191 17.6714C55.5857 17.6714 55.3762 17.5381 55.3762 17.2381C55.3762 16.9381 55.5715 16.8143 55.9667 16.8143H56.3096V16.6191C56.3096 16.4238 56.1715 16.3571 55.9286 16.3571C55.8213 16.3565 55.7144 16.3677 55.6096 16.3905C55.5381 16.3905 55.5143 16.3905 55.5143 16.3191V16.2952C55.5143 16.2286 55.5143 16.2095 55.6048 16.1952C55.7084 16.1754 55.8136 16.1658 55.9191 16.1667C56.3238 16.1667 56.5238 16.3191 56.5238 16.6191V17.1952ZM56.3096 16.9667H55.9667C55.7096 16.9667 55.5905 17.0381 55.5905 17.2191C55.5905 17.4 55.7 17.4667 55.9191 17.4667C56.1381 17.4667 56.3096 17.4048 56.3096 17.1857V16.9667ZM55.9667 16.0143C55.9143 16.0143 55.9096 16.0143 55.9 15.9571C55.8905 15.9 55.9429 15.8429 56.0286 15.7524C56.0489 15.7355 56.0625 15.7118 56.0667 15.6857C56.0667 15.6333 56.0667 15.6095 56.0143 15.6095C55.9721 15.5994 55.928 15.5994 55.8857 15.6095C55.8524 15.6095 55.8286 15.6095 55.8096 15.581V15.5571C55.8096 15.5143 55.8096 15.4952 55.8524 15.481C55.9064 15.4575 55.965 15.4461 56.0238 15.4476C56.0522 15.4453 56.0807 15.4493 56.1072 15.4593C56.1338 15.4694 56.1578 15.4853 56.1774 15.5058C56.197 15.5264 56.2118 15.5511 56.2207 15.5781C56.2295 15.6051 56.2323 15.6337 56.2286 15.6619C56.2286 15.7857 56.0572 15.8381 56.0524 15.9333C56.0505 15.9478 56.0438 15.9612 56.0335 15.9716C56.0232 15.9819 56.0097 15.9885 55.9953 15.9905L55.9667 16.0143Z" fill="#009EDB"/>
<path d="M55.919 17.6572C55.5618 17.6572 55.3713 17.5048 55.3713 17.2191C55.3713 16.9333 55.5523 16.7905 55.9666 16.7905H56.3047V16.6191C56.3047 16.4381 56.1904 16.3619 55.9285 16.3619C55.8214 16.3604 55.7145 16.37 55.6094 16.3905C55.5713 16.3905 55.5475 16.3905 55.5332 16.3905C55.519 16.3905 55.5332 16.3572 55.5332 16.3238V16.3C55.5332 16.2333 55.5332 16.2143 55.6237 16.1952C55.7272 16.175 55.8325 16.1654 55.938 16.1667C56.3428 16.1667 56.5475 16.3238 56.5475 16.6429V17.2191C56.5285 17.5143 56.338 17.6572 55.919 17.6572ZM55.9666 16.8C55.5571 16.8 55.3761 16.9286 55.3761 17.2191C55.3761 17.5095 55.5618 17.6476 55.919 17.6476C56.0848 17.6651 56.2519 17.6284 56.3951 17.5429C56.4468 17.5018 56.4874 17.4485 56.5132 17.3878C56.5389 17.3271 56.5491 17.2609 56.5428 17.1952V16.6191C56.5465 16.5546 56.5347 16.4902 56.5081 16.4313C56.4816 16.3724 56.4412 16.3208 56.3904 16.281C56.2542 16.1993 56.0964 16.1611 55.938 16.1714C55.8325 16.1702 55.7272 16.1797 55.6237 16.2C55.5523 16.2 55.538 16.2286 55.538 16.2952V16.3191C55.538 16.3524 55.538 16.3714 55.538 16.381C55.538 16.3905 55.5713 16.381 55.6094 16.381C55.7143 16.3584 55.8212 16.3472 55.9285 16.3476C56.1951 16.3476 56.3094 16.4286 56.3094 16.6143V16.7952L55.9666 16.8ZM55.919 17.4667C55.6951 17.4667 55.5904 17.3857 55.5904 17.2191C55.5904 17.0524 55.7047 16.9619 55.9666 16.9619H56.3094V17.1857C56.3094 17.4191 56.1618 17.4667 55.919 17.4667ZM55.9666 16.9905C55.7047 16.9905 55.5951 17.0619 55.5951 17.2381C55.5951 17.4143 55.6999 17.481 55.919 17.481C56.138 17.481 56.3047 17.4048 56.3047 17.2048V16.9905H55.9666ZM55.9666 16.0381C55.9094 16.0381 55.9047 16.0381 55.8951 15.981C55.8856 15.9238 55.9237 15.8762 55.9856 15.8095L56.0285 15.7667C56.0379 15.7591 56.0457 15.7497 56.0514 15.7391C56.0571 15.7285 56.0607 15.7168 56.0618 15.7048C56.0618 15.6524 56.0618 15.6333 56.0142 15.6286C55.976 15.6297 55.9385 15.6395 55.9047 15.6572C55.8666 15.6572 55.8428 15.6572 55.819 15.6238V15.6C55.819 15.5524 55.819 15.5381 55.8618 15.5238C55.9158 15.5004 55.9744 15.489 56.0332 15.4905C56.0887 15.4889 56.1429 15.5075 56.1856 15.5429C56.2049 15.5648 56.2196 15.5906 56.2286 15.6184C56.2376 15.6462 56.2408 15.6756 56.238 15.7048C56.2337 15.7367 56.223 15.7675 56.2067 15.7953C56.1903 15.8231 56.1686 15.8474 56.1428 15.8667C56.1032 15.892 56.0744 15.931 56.0618 15.9762C56.0607 15.991 56.0543 16.0049 56.0439 16.0154C56.0334 16.0259 56.0195 16.0322 56.0047 16.0333L55.9666 16.0381ZM55.9999 15.6238C56.0285 15.6238 56.0571 15.6238 56.0571 15.7048C56.0528 15.7309 56.0393 15.7545 56.019 15.7714L55.9761 15.8143C55.9142 15.8762 55.8809 15.9095 55.8856 15.9762C55.8904 16.0429 55.8856 16.0286 55.9523 16.0286C55.9655 16.0267 55.9777 16.0205 55.9872 16.0111C55.9966 16.0017 56.0028 15.9894 56.0047 15.9762C56.017 15.9296 56.0457 15.889 56.0856 15.8619C56.1124 15.846 56.1356 15.8246 56.1536 15.7992C56.1716 15.7738 56.1842 15.7448 56.1904 15.7143C56.1928 15.6859 56.1894 15.6573 56.1804 15.6303C56.1714 15.6033 56.157 15.5784 56.138 15.5572C56.0977 15.5208 56.0446 15.502 55.9904 15.5048C55.9315 15.5033 55.873 15.5147 55.819 15.5381C55.7856 15.5381 55.7666 15.5667 55.7809 15.6095C55.7809 15.6524 55.8237 15.6524 55.8571 15.6429C55.9018 15.6228 55.9515 15.6162 55.9999 15.6238Z" fill="#009EDB"/>
<path d="M57.0523 17.5333C57.0523 17.6095 57.0523 17.6238 56.9571 17.6238H56.9237C56.8523 17.6238 56.8333 17.6238 56.8333 17.5333V16.7095C56.8333 16.3476 57.038 16.1667 57.438 16.1667C57.838 16.1667 58.0428 16.3571 58.0428 16.7095V17.5333C58.0428 17.6095 58.0428 17.6238 57.9475 17.6238H57.9142C57.8333 17.6238 57.819 17.6238 57.819 17.5333V16.7095C57.819 16.4762 57.7333 16.3714 57.438 16.3714C57.1428 16.3714 57.0523 16.4809 57.0523 16.7095V17.5333Z" fill="#009EDB"/>
<path d="M57.9476 17.6191H57.9143C57.8333 17.6191 57.819 17.619 57.819 17.5238V16.7095C57.819 16.4667 57.7143 16.3762 57.4381 16.3762C57.1619 16.3762 57.0523 16.4667 57.0523 16.7095V17.5333C57.0523 17.6095 57.0523 17.6286 56.9571 17.6286H56.9238C56.8523 17.6286 56.8285 17.6286 56.8285 17.5333V16.7095C56.8285 16.3476 57.0333 16.1619 57.4381 16.1619C57.5229 16.1532 57.6087 16.1613 57.6904 16.1858C57.7721 16.2103 57.8482 16.2508 57.9143 16.3048C57.9658 16.358 58.0053 16.4217 58.0299 16.4915C58.0546 16.5614 58.0639 16.6358 58.0571 16.7095V17.5333C58.0428 17.619 58.0285 17.6191 57.9476 17.6191ZM57.4381 16.3571C57.719 16.3571 57.8238 16.4524 57.8238 16.7V17.5238C57.8238 17.6 57.8238 17.6095 57.9143 17.6095H57.9476C58.0238 17.6095 58.0381 17.6095 58.0381 17.5238V16.7095C58.0438 16.6369 58.0346 16.5639 58.0108 16.4951C57.987 16.4263 57.9493 16.3631 57.9 16.3095C57.8336 16.2564 57.7573 16.2168 57.6756 16.1931C57.5939 16.1694 57.5083 16.162 57.4238 16.1714C57.2537 16.1522 57.0829 16.2 56.9476 16.3048C56.8946 16.3573 56.8535 16.4207 56.8272 16.4905C56.8009 16.5604 56.79 16.6351 56.7952 16.7095V17.5333C56.7952 17.6095 56.819 17.6191 56.8857 17.6191H56.919C56.9952 17.6191 57.0095 17.619 57.0095 17.5333V16.7095C57.0476 16.4619 57.1428 16.3667 57.4381 16.3667V16.3571Z" fill="#009EDB"/>
<path d="M59.1809 15.7143C59.1809 15.6333 59.1809 15.619 59.2761 15.619H59.3095C59.3857 15.619 59.4 15.619 59.4 15.7143V16.3857C59.4549 16.3138 59.5279 16.2579 59.6116 16.2236C59.6953 16.1892 59.7866 16.1778 59.8761 16.1905C60.2285 16.1905 60.4095 16.3571 60.4095 16.7V17.5571C60.4095 17.6333 60.4095 17.6476 60.319 17.6476H60.2809C60.2047 17.6476 60.1904 17.6476 60.1904 17.5571V16.7C60.1904 16.4714 60.0857 16.3714 59.819 16.3714C59.5523 16.3714 59.419 16.481 59.419 16.7476V17.5333C59.419 17.6095 59.419 17.6238 59.3285 17.6238H59.2952C59.219 17.6238 59.2 17.6238 59.2 17.5333L59.1809 15.7143Z" fill="#009EDB"/>
<path d="M60.3 17.619H60.2619C60.1857 17.619 60.1666 17.619 60.1666 17.5238V16.7C60.1666 16.4667 60.0619 16.3762 59.8 16.3762C59.5381 16.3762 59.4047 16.4857 59.4047 16.7476V17.5333C59.4047 17.6095 59.4047 17.6286 59.3095 17.6286H59.2761C59.2047 17.6286 59.1809 17.6286 59.1809 17.5333V15.7143C59.1809 15.6286 59.1809 15.6143 59.2761 15.6143H59.3095C59.3857 15.6143 59.4047 15.6143 59.4047 15.7143V16.3762C59.4605 16.3056 59.5338 16.2508 59.6174 16.2174C59.7009 16.1839 59.7918 16.173 59.8809 16.1857C60.2381 16.1857 60.419 16.3571 60.419 16.7V17.5571C60.3952 17.619 60.3761 17.619 60.3 17.619ZM59.8238 16.3571C60.0904 16.3571 60.2 16.4571 60.2 16.6905V17.5238C60.2 17.6 60.2 17.6095 60.2857 17.6095H60.3238C60.4 17.6095 60.4095 17.6095 60.4095 17.5238V16.6667C60.4095 16.3286 60.2333 16.1619 59.8809 16.1619C59.7914 16.1493 59.7 16.1607 59.6164 16.195C59.5327 16.2293 59.4596 16.2853 59.4047 16.3571V15.7143C59.4047 15.6381 59.4047 15.6238 59.319 15.6238H59.2857C59.2142 15.6238 59.1952 15.6238 59.1952 15.7143V17.5571C59.1952 17.6333 59.1952 17.6429 59.2857 17.6429H59.319C59.3904 17.6429 59.4047 17.6429 59.4047 17.5571V16.7476C59.3952 16.481 59.5238 16.3667 59.8 16.3667L59.8238 16.3571Z" fill="#009EDB"/>
<path d="M60.7 17.0428V16.7762C60.7 16.3714 60.9095 16.1667 61.338 16.1667C61.4565 16.1492 61.5774 16.1703 61.6829 16.2269C61.7884 16.2835 61.8729 16.3726 61.9238 16.4809C61.9666 16.4809 62.0095 16.4048 62.0095 16.2524C62.0095 16.2095 62.0095 16.1952 62.0761 16.1952H62.1238C62.1761 16.1952 62.1857 16.1952 62.1857 16.2524C62.1857 16.4857 62.0904 16.6 61.9571 16.6381C61.9622 16.684 61.9622 16.7303 61.9571 16.7762V17.0428C61.9571 17.4524 61.7476 17.6524 61.3285 17.6524C60.9095 17.6524 60.7 17.4428 60.7 17.0428ZM61.7523 16.7762C61.7523 16.4952 61.6523 16.3714 61.338 16.3714C61.0238 16.3714 60.9142 16.4952 60.9142 16.7762V17.0428C60.9142 17.3238 61.019 17.4476 61.338 17.4476C61.6571 17.4476 61.7523 17.3238 61.7523 17.0428V16.7762Z" fill="#009EDB"/>
<path d="M61.3381 17.6571C60.9 17.6571 60.6952 17.4619 60.6952 17.0428V16.7762C60.6877 16.6899 60.6982 16.603 60.7261 16.521C60.7539 16.4391 60.7986 16.3638 60.8571 16.3C60.9906 16.1902 61.161 16.1357 61.3333 16.1476C61.6476 16.1476 61.8333 16.2476 61.9191 16.4619C61.9762 16.4381 62 16.3619 62 16.2381C62 16.1905 62 16.1762 62.0714 16.1762H62.1191C62.1714 16.1762 62.1857 16.1762 62.1857 16.2381C62.1857 16.4476 62.1095 16.5809 61.9571 16.6286C61.9597 16.673 61.9597 16.7175 61.9571 16.7619V17.0286C61.9697 17.1132 61.9624 17.1995 61.9359 17.2808C61.9094 17.3622 61.8643 17.4362 61.8043 17.4971C61.7443 17.5581 61.6709 17.6043 61.59 17.632C61.5091 17.6598 61.4229 17.6684 61.3381 17.6571ZM61.3381 16.1714C61.1662 16.1567 60.9953 16.2096 60.8619 16.319C60.8032 16.3826 60.7588 16.4579 60.7317 16.5401C60.7045 16.6222 60.6954 16.7092 60.7048 16.7952V17.0619C60.7048 17.4762 60.9048 17.6667 61.3381 17.6667C61.5099 17.6809 61.6806 17.628 61.8143 17.519C61.873 17.4555 61.9174 17.3801 61.9445 17.298C61.9716 17.2158 61.9808 17.1288 61.9714 17.0428V16.7762C61.974 16.7302 61.974 16.6841 61.9714 16.6381C62.1238 16.5905 62.1952 16.4619 62.1952 16.2524C62.1952 16.2095 62.1952 16.2 62.1381 16.2H62.0905C62.0429 16.2 62.0286 16.2 62.0286 16.2524C62.0286 16.3809 62 16.4571 61.9381 16.4857C61.8333 16.2714 61.6524 16.1905 61.3381 16.1905V16.1714ZM61.3381 17.4524C61.0333 17.4524 60.9143 17.3381 60.9143 17.0428V16.7762C60.9143 16.4809 61.0286 16.3667 61.3381 16.3667C61.6476 16.3667 61.7524 16.4809 61.7524 16.7762V17.0428C61.7524 17.3428 61.6429 17.4524 61.3381 17.4524ZM61.3381 16.3762C61.0333 16.3762 60.9191 16.4809 60.9191 16.7762V17.0428C60.9191 17.3333 61.0381 17.4428 61.3381 17.4428C61.6381 17.4428 61.7476 17.3381 61.7476 17.0428V16.7762C61.7476 16.4809 61.6381 16.3762 61.3381 16.3762Z" fill="#009EDB"/>
<path d="M62.4953 17.5333C62.4953 17.6095 62.4953 17.6238 62.4 17.6238H62.381C62.3096 17.6238 62.2905 17.6238 62.2905 17.5333V16.7095C62.2905 16.3476 62.4905 16.1667 62.8953 16.1667C63.3001 16.1667 63.5001 16.3571 63.5001 16.7095V17.5333C63.5001 17.6095 63.5 17.6238 63.4048 17.6238H63.3715C63.2905 17.6238 63.2762 17.6238 63.2762 17.5333V16.7095C63.2762 16.4762 63.1905 16.3714 62.8953 16.3714C62.6001 16.3714 62.5096 16.4809 62.5096 16.7095L62.4953 17.5333Z" fill="#009EDB"/>
<path d="M63.3905 17.6191H63.3571C63.2762 17.6191 63.2619 17.619 63.2619 17.5238V16.7095C63.2619 16.4667 63.1571 16.3762 62.8809 16.3762C62.6047 16.3762 62.4952 16.4667 62.4952 16.7095V17.5333C62.4952 17.6095 62.4952 17.6286 62.4 17.6286H62.3809C62.3095 17.6286 62.2857 17.6286 62.2857 17.5333V16.7095C62.2857 16.3476 62.4905 16.1619 62.8952 16.1619C62.9801 16.1532 63.0659 16.1613 63.1476 16.1858C63.2293 16.2103 63.3054 16.2508 63.3714 16.3048C63.423 16.358 63.4624 16.4217 63.4871 16.4915C63.5117 16.5614 63.521 16.6358 63.5143 16.7095V17.5333C63.4857 17.619 63.4714 17.6191 63.3905 17.6191ZM62.8809 16.3571C63.1619 16.3571 63.2666 16.4524 63.2666 16.7V17.5238C63.2666 17.6 63.2666 17.6095 63.3571 17.6095H63.3905C63.4666 17.6095 63.4809 17.6095 63.4809 17.5238V16.7095C63.4867 16.6369 63.4774 16.5639 63.4537 16.4951C63.4299 16.4263 63.3922 16.3631 63.3428 16.3095C63.2764 16.2564 63.2002 16.2168 63.1185 16.1931C63.0368 16.1694 62.9512 16.162 62.8667 16.1714C62.6966 16.1522 62.5258 16.2 62.3905 16.3048C62.3375 16.3573 62.2964 16.4207 62.2701 16.4905C62.2438 16.5604 62.2329 16.6351 62.2381 16.7095V17.5333C62.2381 17.6095 62.2619 17.6191 62.3286 17.6191H62.3809C62.4571 17.6191 62.4714 17.619 62.4714 17.5333V16.7095C62.4905 16.4619 62.6 16.3667 62.8809 16.3667V16.3571Z" fill="#009EDB"/>
</g>
<defs>
<clipPath id="clip0_57_3">
<rect width="65.8667" height="20" fill="white"/>
</clipPath>
</defs>
</svg>
