<svg width="24" height="17" viewBox="0 0 24 17" fill="none" xmlns="http://www.w3.org/2000/svg">
<path d="M23 3C22.4696 3 21.9609 2.78929 21.5858 2.41421C21.2107 2.03914 21 1.53043 21 1C21 0.734784 20.8946 0.48043 20.7071 0.292893C20.5196 0.105357 20.2652 0 20 0H4C3.73478 0 3.48043 0.105357 3.29289 0.292893C3.10536 0.48043 3 0.734784 3 1C3 1.53043 2.78929 2.03914 2.41421 2.41421C2.03914 2.78929 1.53043 3 1 3C0.734784 3 0.48043 3.10536 0.292893 3.29289C0.105357 3.48043 0 3.73478 0 4L0 13C0 13.2652 0.105357 13.5196 0.292893 13.7071C0.48043 13.8946 0.734784 14 1 14C1.53043 14 2.03914 14.2107 2.41421 14.5858C2.78929 14.9609 3 15.4696 3 16C3 16.2652 3.10536 16.5196 3.29289 16.7071C3.48043 16.8946 3.73478 17 4 17H20C20.2652 17 20.5196 16.8946 20.7071 16.7071C20.8946 16.5196 21 16.2652 21 16C21 15.4696 21.2107 14.9609 21.5858 14.5858C21.9609 14.2107 22.4696 14 23 14C23.2652 14 23.5196 13.8946 23.7071 13.7071C23.8946 13.5196 24 13.2652 24 13V4C24 3.73478 23.8946 3.48043 23.7071 3.29289C23.5196 3.10536 23.2652 3 23 3ZM19.13 15H4.87C4.69115 14.3091 4.33071 13.6786 3.82606 13.1739C3.3214 12.6693 2.69092 12.3088 2 12.13V4.87C2.69092 4.69115 3.3214 4.33071 3.82606 3.82606C4.33071 3.3214 4.69115 2.69092 4.87 2H19.13C19.3104 2.68907 19.6715 3.31748 20.1761 3.82027C20.6806 4.32306 21.3103 4.682 22 4.86V12.14C21.3103 12.318 20.6806 12.6769 20.1761 13.1797C19.6715 13.6825 19.3104 14.3109 19.13 15Z" fill="black"/>
<path d="M8 3C7.73478 3 7.48043 3.10536 7.29289 3.29289C7.10536 3.48043 7 3.73478 7 4C7 4.26522 7.10536 4.51957 7.29289 4.70711C7.48043 4.89464 7.73478 5 8 5C8.26522 5 8.51957 4.89464 8.70711 4.70711C8.89464 4.51957 9 4.26522 9 4C9 3.73478 8.89464 3.48043 8.70711 3.29289C8.51957 3.10536 8.26522 3 8 3Z" fill="black"/>
<path d="M8 6C7.73478 6 7.48043 6.10536 7.29289 6.29289C7.10536 6.48043 7 6.73478 7 7C7 7.26522 7.10536 7.51957 7.29289 7.70711C7.48043 7.89464 7.73478 8 8 8C8.26522 8 8.51957 7.89464 8.70711 7.70711C8.89464 7.51957 9 7.26522 9 7C9 6.73478 8.89464 6.48043 8.70711 6.29289C8.51957 6.10536 8.26522 6 8 6Z" fill="black"/>
<path d="M8 9C7.73478 9 7.48043 9.10536 7.29289 9.29289C7.10536 9.48043 7 9.73478 7 10C7 10.2652 7.10536 10.5196 7.29289 10.7071C7.48043 10.8946 7.73478 11 8 11C8.26522 11 8.51957 10.8946 8.70711 10.7071C8.89464 10.5196 9 10.2652 9 10C9 9.73478 8.89464 9.48043 8.70711 9.29289C8.51957 9.10536 8.26522 9 8 9Z" fill="black"/>
<path d="M8 12C7.73478 12 7.48043 12.1054 7.29289 12.2929C7.10536 12.4804 7 12.7348 7 13C7 13.2652 7.10536 13.5196 7.29289 13.7071C7.48043 13.8946 7.73478 14 8 14C8.26522 14 8.51957 13.8946 8.70711 13.7071C8.89464 13.5196 9 13.2652 9 13C9 12.7348 8.89464 12.4804 8.70711 12.2929C8.51957 12.1054 8.26522 12 8 12Z" fill="black"/>
<path d="M16.58 7.3L15.5 5L14.42 7.3L12 7.67L13.75 9.47L13.34 12L15.5 10.8L17.66 12L17.25 9.47L19 7.67L16.58 7.3Z" fill="black"/>
</svg>
