<svg width="48" height="48" viewBox="0 0 48 48" fill="none" xmlns="http://www.w3.org/2000/svg">
<path d="M10.56 3.84C6.84867 3.84 3.84003 6.84864 3.84003 10.56V37.44C3.84003 41.1514 6.84867 44.16 10.56 44.16H37.44C41.1514 44.16 44.16 41.1514 44.16 37.44V10.56C44.16 6.84864 41.1514 3.84 37.44 3.84H10.56ZM12.5625 12.48H20.1825L25.5938 20.1694L32.16 12.48H34.56L26.6775 21.7087L36.3975 35.52H28.7794L22.5 26.5987L14.88 35.52H12.48L21.4163 25.0594L12.5625 12.48ZM16.2375 14.4L29.7807 33.6H32.7225L19.1794 14.4H16.2375Z" fill="black"/>
</svg>
