<svg width="70" height="20" viewBox="0 0 70 20" fill="none" xmlns="http://www.w3.org/2000/svg">
<path d="M20.5364 7.53115C20.2621 7.25108 19.9138 7.11022 19.4901 7.11022C18.8675 7.11022 18.413 7.40921 18.1272 8.00638C17.5167 7.28912 16.6822 6.93091 15.6244 6.93091C14.3544 6.93091 13.2859 7.42114 12.4206 8.40078C11.5557 9.38063 11.1233 10.576 11.1233 11.986C11.1233 13.3961 11.5557 14.591 12.4206 15.5713C13.2859 16.5513 14.3544 17.0409 15.6244 17.0409C16.6822 17.0409 17.5167 16.6827 18.1272 15.965C18.413 16.563 18.8675 16.8614 19.4901 16.8614C19.9138 16.8614 20.2621 16.7214 20.5364 16.4403C20.8101 16.1602 20.9469 15.8164 20.9469 15.4096V8.562C20.9469 8.15587 20.8101 7.81226 20.5364 7.53115ZM17.5015 13.6839C17.1463 14.1415 16.6571 14.3699 16.0351 14.3699C15.412 14.3699 14.9236 14.1415 14.5689 13.6839C14.2144 13.2258 14.0367 12.6601 14.0367 11.9858C14.0367 11.3119 14.2144 10.746 14.5689 10.2881C14.9236 9.83056 15.412 9.60189 16.0351 9.60189C16.6571 9.60189 17.1463 9.83056 17.5015 10.2881C17.8564 10.746 18.0338 11.3119 18.0338 11.9858C18.0338 12.6599 17.8564 13.2258 17.5015 13.6839Z" fill="#0FA8E0"/>
<path d="M24.2454 16.4402C23.9713 16.7213 23.6223 16.8612 23.1998 16.8612C22.7759 16.8612 22.4272 16.7213 22.1535 16.4402C21.8792 16.1598 21.7424 15.8157 21.7424 15.4094V3.15524C21.7424 2.74911 21.8792 2.40509 22.1535 2.12439C22.4272 1.8435 22.7759 1.70346 23.1998 1.70346C23.6223 1.70346 23.9713 1.8435 24.2454 2.12439C24.5193 2.40509 24.6561 2.74911 24.6561 3.15524V15.4096C24.6561 15.8157 24.5193 16.1598 24.2454 16.4402Z" fill="#0FA8E0"/>
<path d="M33.8973 8.40078C32.9637 7.42114 31.7745 6.93091 30.3298 6.93091C28.8854 6.93091 27.7063 7.41497 26.7912 8.38289C25.8755 9.35081 25.418 10.5517 25.418 11.9858C25.418 13.4197 25.8755 14.6206 26.7912 15.5887C27.7063 16.5567 28.8854 17.0409 30.3298 17.0409C31.7745 17.0409 32.9637 16.5511 33.8973 15.5713C34.7939 14.6148 35.2422 13.4199 35.2422 11.986C35.2422 10.5517 34.7941 9.35698 33.8973 8.40078ZM31.7963 13.6839C31.4412 14.1415 30.9524 14.3699 30.3298 14.3699C29.7069 14.3699 29.2185 14.1415 28.864 13.6839C28.5089 13.2258 28.3314 12.6601 28.3314 11.9858C28.3314 11.3119 28.5089 10.746 28.864 10.2881C29.2185 9.83056 29.7069 9.60189 30.3298 9.60189C30.9524 9.60189 31.4412 9.83056 31.7963 10.2881C32.1513 10.746 32.3281 11.3119 32.3281 11.9858C32.3281 12.6599 32.1515 13.2258 31.7963 13.6839Z" fill="#0FA8E0"/>
<path d="M9.51038 7.27C10.5394 5.94201 11.0545 5.0473 11.0545 4.58688C11.0545 3.5217 10.3841 2.98911 9.04318 2.98911H1.9708C1.41518 2.98911 0.9854 3.12051 0.680444 3.3829C0.3759 3.6459 0.223319 3.98684 0.223319 4.40675C0.223319 4.82727 0.3759 5.16862 0.680444 5.43122C0.9854 5.69381 1.41518 5.82501 1.9708 5.82501H6.82809L0.6095 13.8598C0.203167 14.3856 0 14.8515 0 15.2587C0 16.4267 0.772363 17.0109 2.31647 17.0109H9.61176C10.7773 17.0109 11.3597 16.5217 11.3597 15.5433C11.3597 14.5653 10.7773 14.0761 9.61176 14.0761H4.24717L9.51038 7.27Z" fill="#0FA8E0"/>
<path d="M44.5864 5.79785H42.6345V9.85481H44.5864C45.1729 9.85481 45.6483 9.66337 46.0119 9.28068C46.3754 8.898 46.5572 8.41331 46.5572 7.82623C46.5572 7.23976 46.3752 6.75467 46.0119 6.37198C45.6485 5.9893 45.1727 5.79785 44.5864 5.79785Z" fill="#32B34A"/>
<path d="M54.3244 9.6134C53.7048 9.6134 53.2191 9.84063 52.8662 10.2959C52.5136 10.7514 52.3369 11.3138 52.3369 11.9842C52.3369 12.6547 52.5136 13.2176 52.8662 13.6732C53.2191 14.1279 53.7048 14.3553 54.3244 14.3553C54.9431 14.3553 55.4297 14.1279 55.7827 13.6732C56.136 13.2176 56.3122 12.6547 56.3122 11.9842C56.3122 11.3138 56.136 10.7514 55.7827 10.2959C55.4297 9.84042 54.9431 9.6134 54.3244 9.6134Z" fill="#32B34A"/>
<path d="M68.1126 0H39.8159C38.8716 0 38.1064 0.765371 38.1064 1.70944V18.2906C38.1064 19.2346 38.8718 20 39.8159 20H62.1542C61.9185 19.7767 61.8003 19.5153 61.8003 19.2157C61.8003 18.9712 61.8552 18.7146 61.965 18.4462L63.0186 16.103L60.1052 8.8285C60.0197 8.62102 59.9771 8.39502 59.9771 8.15052C59.9771 7.83302 60.1114 7.56405 60.3801 7.34423C60.6489 7.12441 60.9298 7.0146 61.2232 7.0146C61.8704 7.0146 62.3104 7.32593 62.5426 7.949L64.3563 12.9147L66.2987 7.949C66.543 7.32593 66.9824 7.0146 67.6181 7.0146C67.9111 7.0146 68.192 7.12441 68.461 7.34423C68.7293 7.56405 68.8642 7.83302 68.8642 8.15052C68.8642 8.39502 68.821 8.62102 68.7357 8.8285L64.4207 19.3072C64.3026 19.6 64.1603 19.8306 63.9948 20H68.1128C69.0569 20 69.8223 19.2346 69.8223 18.2906V1.70944C69.8218 0.765371 69.0567 0 68.1126 0ZM48.1264 11.1561C47.2331 11.9726 46.1106 12.3808 44.7585 12.3808H42.6345V15.519C42.6345 15.9914 42.5004 16.358 42.2325 16.6192C41.9646 16.8809 41.6199 17.0115 41.1996 17.0115C40.7783 17.0115 40.4338 16.8809 40.1661 16.6192C39.8979 16.358 39.7643 15.9914 39.7643 15.519V4.76475C39.7643 3.76969 40.2617 3.27205 41.2568 3.27205H44.6442C46.06 3.27205 47.2302 3.69648 48.1556 4.54452C49.0801 5.39317 49.5426 6.49352 49.5426 7.84557C49.5422 9.21077 49.07 10.3138 48.1264 11.1561ZM59.2097 15.3893C59.2097 15.7935 59.0735 16.1353 58.8015 16.4141C58.5286 16.6936 58.1819 16.833 57.761 16.833C57.1414 16.833 56.6894 16.5365 56.4052 15.9414C55.7978 16.6552 54.9681 17.0113 53.9158 17.0113C52.6528 17.0113 51.5903 16.5246 50.7299 15.5497C49.8693 14.5752 49.4394 13.3862 49.4394 11.9838C49.4394 10.5817 49.8696 9.39276 50.7299 8.41847C51.5905 7.44417 52.653 6.95661 53.9158 6.95661C54.9681 6.95661 55.7978 7.31277 56.4052 8.02611C56.6894 7.43224 57.1414 7.1349 57.761 7.1349C58.1819 7.1349 58.5284 7.27493 58.8015 7.55357C59.0735 7.83344 59.2097 8.17499 59.2097 8.57886V15.3893Z" fill="#32B34A"/>
</svg>
